<?xml version="1.0"?>
<svg xmlns="http://www.w3.org/2000/svg" id="Capa_1" enable-background="new 0 0 512 512" height="512px" viewBox="0 0 512 512" width="512px" class=""><g><g id="XMLID_1556_"><g id="XMLID_57_"><path id="XMLID_1382_" d="m420 110h-75c-5.523 0-10 4.477-10 10s4.477 10 10 10h65v124.357l-50.387-50.387c-3.905-3.905-10.237-3.905-14.143 0l-70.012 70.012-9.72-9.72c-3.905-3.904-10.237-3.904-14.143 0l-61.595 61.595v-195.857h65c5.523 0 10-4.477 10-10s-4.477-10-10-10h-75c-5.523 0-10 4.477-10 10v272c0 5.523 4.477 10 10 10h240c5.523 0 10-4.477 10-10v-272c0-5.523-4.477-10-10-10zm-230 244.143 68.667-68.667 96.523 96.524h-165.19zm193.476 27.857-93.875-93.875 62.941-62.941 57.458 57.459v99.357z" data-original="#000000" class="active-path" data-old_color="#000000" fill="#374957"/><path id="XMLID_1409_" d="m458 0h-360c-16.542 0-30 13.458-30 30v24h-6c-20.953 0-38 17.047-38 38s17.047 38 38 38h6v33.333h-6c-20.953 0-38 17.047-38 38s17.047 38 38 38h6v33.333h-6c-20.953 0-38 17.047-38 38s17.047 38 38 38h6v33.334h-6c-20.953 0-38 17.047-38 38s17.047 38 38 38h6v24c0 16.542 13.458 30 30 30h360c16.542 0 30-13.458 30-30v-452c0-16.542-13.458-30-30-30zm-370 30c0-5.514 4.486-10 10-10h14v38.543c-5.361-2.896-11.491-4.543-18-4.543h-6zm-26 80c-9.925 0-18-8.075-18-18s8.075-18 18-18h6v36zm26-36h6c9.925 0 18 8.075 18 18v75.876c-5.361-2.896-11.491-4.543-18-4.543h-6zm-26 145.333c-9.925 0-18-8.075-18-18s8.075-18 18-18h6v36zm26-36h6c9.925 0 18 8.075 18 18v75.876c-5.361-2.896-11.491-4.543-18-4.543h-6zm-26 145.334c-9.925 0-18-8.075-18-18s8.075-18 18-18h6v36zm26-36h6c9.925 0 18 8.075 18 18v75.876c-5.361-2.896-11.491-4.543-18-4.543h-6zm-26 145.333c-9.925 0-18-8.075-18-18s8.075-18 18-18h6v36zm26 44v-80h6c9.925 0 18 8.075 18 18v72h-14c-5.514 0-10-4.486-10-10zm380 0c0 5.514-4.486 10-10 10h-326v-472h326c5.514 0 10 4.486 10 10z" data-original="#000000" class="active-path" data-old_color="#000000" fill="#374957"/><path id="XMLID_1436_" d="m222.5 194c0 18.748 15.252 34 34 34s34-15.252 34-34-15.252-34-34-34-34 15.252-34 34zm48 0c0 7.72-6.28 14-14 14s-14-6.28-14-14 6.28-14 14-14 14 6.28 14 14z" data-original="#000000" class="active-path" data-old_color="#000000" fill="#374957"/><path id="XMLID_1437_" d="m300 130c2.63 0 5.21-1.07 7.07-2.93s2.93-4.44 2.93-7.07-1.07-5.21-2.93-7.07-4.44-2.93-7.07-2.93-5.21 1.07-7.07 2.93-2.93 4.44-2.93 7.07 1.07 5.21 2.93 7.07 4.44 2.93 7.07 2.93z" data-original="#000000" class="active-path" data-old_color="#000000" fill="#374957"/></g></g></g> </svg>
