<?xml version="1.0"?>
<svg xmlns="http://www.w3.org/2000/svg" xmlns:xlink="http://www.w3.org/1999/xlink" version="1.1" id="Capa_1" x="0px" y="0px" viewBox="0 0 512 512" style="enable-background:new 0 0 512 512;" xml:space="preserve" width="512px" height="512px"><g><g>
	<g>
		<path d="M502,21.743H10c-5.523,0-10,4.477-10,10v367.104c0,5.523,4.477,10,10,10h60.64v71.41c0,3.603,1.937,6.927,5.073,8.702    c1.53,0.866,3.229,1.298,4.927,1.298c1.782,0,3.563-0.476,5.145-1.425l133.3-79.985H502c5.522,0,10-4.477,10-10V31.743    C512,26.22,507.522,21.743,502,21.743z M492,388.847H216.315c-1.813,0-3.591,0.492-5.146,1.425L90.64,462.594v-63.747    c0-5.523-4.478-10-10-10H20V41.743h472V388.847z" data-original="#000000" class="active-path" data-old_color="#000000" fill="#FFFFFF"/>
	</g>
</g><g>
	<g>
		<path d="M461.336,62.406H50.664c-5.522,0-10,4.477-10,10v285.778c0,5.523,4.478,10,10,10h60.64v40.251    c0,3.602,1.937,6.927,5.073,8.702c1.53,0.866,3.229,1.298,4.927,1.298c1.782,0,3.563-0.477,5.145-1.426l81.371-48.826h110.877    c5.522,0,10-4.477,10-10s-4.478-10-10-10H205.051c-1.812,0-3.59,0.492-5.145,1.425l-68.602,41.164v-32.589c0-5.523-4.478-10-10-10    h-60.64V82.406h390.672v265.777h-43.179c-5.522,0-10,4.477-10,10s4.478,10,10,10h53.179c5.522,0,10-4.477,10-10V72.406    C471.336,66.883,466.858,62.406,461.336,62.406z" data-original="#000000" class="active-path" data-old_color="#000000" fill="#FFFFFF"/>
	</g>
</g><g>
	<g>
		<path d="M373.229,356.23c-0.13-0.64-0.319-1.27-0.569-1.87c-0.25-0.61-0.561-1.19-0.92-1.73c-0.36-0.55-0.78-1.06-1.24-1.52    c-0.46-0.46-0.97-0.88-1.521-1.24c-0.539-0.36-1.12-0.67-1.729-0.92c-0.6-0.25-1.23-0.44-1.87-0.57c-1.29-0.26-2.62-0.26-3.91,0    c-0.63,0.13-1.26,0.32-1.87,0.57c-0.6,0.25-1.18,0.56-1.72,0.92c-0.55,0.36-1.061,0.78-1.521,1.24c-0.46,0.46-0.88,0.97-1.25,1.52    c-0.36,0.54-0.67,1.12-0.92,1.73c-0.25,0.6-0.439,1.23-0.569,1.87c-0.129,0.64-0.19,1.3-0.19,1.95c0,0.651,0.06,1.31,0.19,1.96    c0.129,0.63,0.319,1.26,0.569,1.87c0.25,0.6,0.561,1.18,0.92,1.72c0.37,0.55,0.79,1.06,1.25,1.52c0.46,0.47,0.971,0.88,1.521,1.25    c0.54,0.36,1.12,0.67,1.72,0.92c0.61,0.25,1.24,0.44,1.87,0.57c0.65,0.13,1.311,0.19,1.96,0.19c0.65,0,1.31-0.06,1.95-0.19    s1.269-0.32,1.87-0.57c0.609-0.25,1.189-0.56,1.729-0.92c0.551-0.37,1.061-0.78,1.521-1.25c0.46-0.46,0.88-0.97,1.24-1.52    c0.359-0.54,0.67-1.12,0.92-1.72c0.25-0.61,0.439-1.24,0.569-1.87c0.13-0.65,0.2-1.31,0.2-1.96    C373.429,357.53,373.359,356.87,373.229,356.23z" data-original="#000000" class="active-path" data-old_color="#000000" fill="#FFFFFF"/>
	</g>
</g><g>
	<g>
		<path d="M199.972,196.864c-1.176-3.62-4.305-6.259-8.072-6.806l-30.923-4.494l-13.828-28.02c-1.685-3.413-5.161-5.574-8.968-5.574    s-7.283,2.161-8.968,5.574l-13.828,28.02l-30.923,4.494c-3.766,0.548-6.895,3.186-8.072,6.806    c-1.176,3.62-0.196,7.594,2.53,10.251l22.375,21.81l-5.282,30.797c-0.643,3.752,0.9,7.544,3.979,9.781    c1.742,1.266,3.806,1.91,5.879,1.91c1.592,0,3.19-0.379,4.653-1.148l27.657-14.54l27.658,14.54    c3.367,1.771,7.451,1.476,10.531-0.761c3.08-2.238,4.623-6.03,3.979-9.781l-5.282-30.797l22.375-21.811    C200.167,204.458,201.148,200.484,199.972,196.864z M157.341,218.274c-2.356,2.297-3.432,5.607-2.876,8.851l2.746,16.008    l-14.377-7.559c-1.457-0.765-3.054-1.148-4.653-1.148s-3.198,0.383-4.653,1.15l-14.376,7.558l2.746-16.008    c0.556-3.245-0.52-6.555-2.876-8.852l-11.632-11.337l16.074-2.336c3.257-0.473,6.072-2.519,7.529-5.47l7.188-14.564l7.188,14.564    c1.457,2.951,4.272,4.997,7.529,5.47l16.074,2.336L157.341,218.274z" data-original="#000000" class="active-path" data-old_color="#000000" fill="#FFFFFF"/>
	</g>
</g><g>
	<g>
		<path d="M435.611,196.863c-1.176-3.62-4.305-6.259-8.072-6.806l-30.923-4.494l-13.828-28.02c-1.685-3.413-5.161-5.574-8.968-5.574    s-7.283,2.161-8.968,5.574l-13.828,28.02l-30.923,4.494c-3.766,0.548-6.895,3.186-8.072,6.806    c-1.176,3.62-0.196,7.594,2.53,10.251l22.375,21.811l-5.282,30.797c-0.643,3.752,0.9,7.543,3.979,9.781    c3.08,2.237,7.163,2.532,10.531,0.761l27.658-14.54l27.657,14.54c1.463,0.77,3.06,1.149,4.652,1.149    c2.073,0,4.137-0.644,5.88-1.91c3.079-2.238,4.622-6.03,3.978-9.781l-5.282-30.797l22.376-21.811    C435.806,204.457,436.787,200.484,435.611,196.863z M390.103,227.123l2.746,16.008l-14.376-7.558    c-2.914-1.532-6.395-1.531-9.307,0l-14.377,7.559l2.746-16.008c0.556-3.244-0.52-6.554-2.876-8.851l-11.631-11.337l16.074-2.336    c3.257-0.473,6.072-2.519,7.529-5.47l7.188-14.564l7.188,14.564c1.457,2.951,4.272,4.997,7.529,5.47l16.074,2.336L390.103,227.123    z" data-original="#000000" class="active-path" data-old_color="#000000" fill="#FFFFFF"/>
	</g>
</g><g>
	<g>
		<path d="M317.791,154.531c-1.177-3.62-4.305-6.259-8.072-6.806l-30.923-4.494l-13.828-28.02c-1.685-3.413-5.161-5.574-8.968-5.574    s-7.283,2.161-8.968,5.574l-13.828,28.02l-30.923,4.494c-3.766,0.548-6.895,3.186-8.072,6.806    c-1.176,3.62-0.196,7.594,2.53,10.251l22.375,21.811l-5.282,30.797c-0.643,3.752,0.9,7.543,3.979,9.781    c3.079,2.237,7.163,2.532,10.531,0.761L256,213.391l27.658,14.541c1.463,0.769,3.06,1.148,4.652,1.148    c2.074,0,4.137-0.644,5.88-1.909c3.079-2.238,4.621-6.03,3.978-9.781l-5.282-30.797l22.375-21.811    C317.986,162.125,318.967,158.151,317.791,154.531z M275.16,175.941c-2.356,2.297-3.432,5.607-2.876,8.851l2.746,16.008    l-14.377-7.559c-1.457-0.765-3.054-1.148-4.653-1.148s-3.196,0.383-4.653,1.148L236.97,200.8l2.746-16.01    c0.556-3.244-0.519-6.554-2.876-8.851l-11.631-11.337l16.074-2.336c3.256-0.473,6.072-2.519,7.529-5.47L256,142.232l7.188,14.566    c1.457,2.951,4.272,4.997,7.529,5.47l16.074,2.336L275.16,175.941z" data-original="#000000" class="active-path" data-old_color="#000000" fill="#FFFFFF"/>
	</g>
</g><g>
	<g>
		<path d="M155.499,292.68c-0.12-0.64-0.32-1.27-0.57-1.87c-0.25-0.61-0.56-1.191-0.92-1.73c-0.36-0.55-0.78-1.06-1.24-1.52    c-0.46-0.46-0.97-0.88-1.52-1.24c-0.539-0.36-1.12-0.67-1.73-0.92c-0.599-0.25-1.229-0.44-1.87-0.57    c-1.29-0.26-2.619-0.26-3.899,0c-0.641,0.13-1.271,0.32-1.88,0.57c-0.601,0.25-1.181,0.56-1.721,0.92    c-0.55,0.36-1.06,0.78-1.52,1.24c-0.46,0.46-0.88,0.97-1.24,1.52c-0.37,0.54-0.67,1.12-0.92,1.73c-0.25,0.6-0.45,1.23-0.57,1.87    c-0.13,0.64-0.199,1.3-0.199,1.95c0,0.65,0.069,1.31,0.199,1.95c0.12,0.64,0.32,1.27,0.57,1.88c0.25,0.6,0.55,1.18,0.92,1.72    c0.36,0.55,0.78,1.06,1.24,1.52c0.46,0.46,0.97,0.88,1.52,1.24c0.54,0.36,1.12,0.67,1.721,0.92c0.61,0.25,1.239,0.45,1.88,0.57    c0.639,0.13,1.3,0.2,1.95,0.2s1.31-0.07,1.949-0.2c0.64-0.12,1.27-0.32,1.87-0.57c0.61-0.25,1.19-0.56,1.73-0.92    c0.55-0.36,1.06-0.78,1.52-1.24c0.46-0.46,0.88-0.97,1.24-1.52c0.36-0.54,0.67-1.12,0.92-1.72c0.25-0.61,0.45-1.24,0.57-1.88    c0.13-0.64,0.2-1.3,0.2-1.95S155.629,293.32,155.499,292.68z" data-original="#000000" class="active-path" data-old_color="#000000" fill="#FFFFFF"/>
	</g>
</g><g>
	<g>
		<path d="M366.3,284.63H185.348c-5.523,0-10,4.477-10,10s4.477,10,10,10H366.3c5.522,0,10-4.477,10-10S371.822,284.63,366.3,284.63    z" data-original="#000000" class="active-path" data-old_color="#000000" fill="#FFFFFF"/>
	</g>
</g></g> </svg>
