<?xml version="1.0"?>
<svg xmlns="http://www.w3.org/2000/svg" xmlns:xlink="http://www.w3.org/1999/xlink" version="1.1" id="Layer_1" x="0px" y="0px" viewBox="0 0 512 512" style="enable-background:new 0 0 512 512;" xml:space="preserve" width="512px" height="512px"><g><g>
	<g>
		<path d="M505.97,70.221c-3.669-1.644-7.961-0.978-10.96,1.698L256,285.193L16.99,71.919c-2.999-2.676-7.29-3.342-10.96-1.698    C2.361,71.863,0,75.509,0,79.528v133.61c0,2.907,1.24,5.676,3.409,7.61l245.801,219.334c1.935,1.726,4.362,2.59,6.791,2.59    s4.856-0.864,6.791-2.59l245.801-219.334c2.168-1.935,3.409-4.703,3.409-7.61V79.528C512,75.509,509.639,71.863,505.97,70.221z     M491.602,208.57L256,418.803L20.398,208.57V102.298L249.21,306.472c3.869,3.452,9.712,3.452,13.58,0l228.811-204.174V208.57z" data-original="#000000" class="active-path" data-old_color="#000000" fill="#FFFFFF"/>
	</g>
</g><g>
	<g>
		<path d="M438.016,225.178c-3.749-4.201-10.197-4.569-14.4-0.82l-7.139,6.37c-4.203,3.751-4.57,10.198-0.82,14.401    c2.015,2.258,4.808,3.409,7.614,3.409c2.417,0,4.843-0.854,6.786-2.589l7.139-6.37    C441.399,235.828,441.766,229.381,438.016,225.178z" data-original="#000000" class="active-path" data-old_color="#000000" fill="#FFFFFF"/>
	</g>
</g><g>
	<g>
		<path d="M404.359,255.212c-3.749-4.202-10.197-4.57-14.4-0.819L249.209,379.986c-4.203,3.75-4.57,10.197-0.82,14.4    c2.015,2.258,4.808,3.409,7.614,3.409c2.417,0,4.843-0.854,6.787-2.59l140.749-125.593    C407.742,265.862,408.109,259.415,404.359,255.212z" data-original="#000000" class="active-path" data-old_color="#000000" fill="#FFFFFF"/>
	</g>
</g></g> </svg>
