<?xml version="1.0"?>
<svg xmlns="http://www.w3.org/2000/svg" xmlns:xlink="http://www.w3.org/1999/xlink" version="1.1" id="Layer_1" x="0px" y="0px" viewBox="0 0 512 512" style="enable-background:new 0 0 512 512;" xml:space="preserve" width="512px" height="512px" class="hovered-paths"><g><g>
	<g>
		<g>
			<path d="M85.338,221.867c-18.825,0-34.133,15.317-34.133,34.133c0,18.825,15.309,34.133,34.133,34.133     c18.825,0,34.133-15.309,34.133-34.133C119.471,237.184,104.162,221.867,85.338,221.867z M85.338,273.067     c-9.412,0-17.067-7.646-17.067-17.067c0-9.412,7.654-17.067,17.067-17.067c9.404,0,17.067,7.654,17.067,17.067     C102.405,265.421,94.742,273.067,85.338,273.067z" data-original="#000000" class="hovered-path active-path" data-old_color="#000000" fill="#C12020"/>
			<path d="M346.082,358.63c-14.293,0-27.187,9.02-32.085,22.468c-6.434,17.681,2.714,37.299,20.395,43.742     c3.772,1.365,7.697,2.065,11.682,2.065c14.293,0,27.187-9.028,32.068-22.468c6.434-17.681-2.714-37.308-20.395-43.742     C353.976,359.322,350.05,358.63,346.082,358.63z M362.108,398.601c-3.123,8.593-13.167,13.355-21.88,10.206     c-8.841-3.226-13.414-13.039-10.197-21.871c2.449-6.724,8.9-11.238,16.051-11.238c1.98,0,3.934,0.35,5.828,1.033     C360.751,379.947,365.325,389.76,362.108,398.601z" data-original="#000000" class="hovered-path active-path" data-old_color="#000000" fill="#C12020"/>
			<path d="M392.768,298.607c14.302,0,27.196-9.028,32.077-22.468c6.434-17.681-2.714-37.308-20.403-43.75     c-3.763-1.365-7.689-2.057-11.665-2.057c-14.302,0-27.196,9.028-32.085,22.468c-6.434,17.681,2.722,37.308,20.403,43.742     C384.858,297.907,388.783,298.607,392.768,298.607z M376.726,258.628c2.449-6.716,8.9-11.23,16.051-11.23     c1.988,0,3.942,0.35,5.837,1.033c8.841,3.217,13.414,13.03,10.197,21.871c-3.123,8.593-13.167,13.38-21.879,10.197     C378.091,277.282,373.509,267.477,376.726,258.628z" data-original="#000000" class="hovered-path active-path" data-old_color="#000000" fill="#C12020"/>
			<path d="M341.338,298.667v-256C341.338,19.149,322.198,0,298.671,0h-256C19.145,0,0.005,19.149,0.005,42.667v256     c0,23.526,19.14,42.667,42.667,42.667h256C322.198,341.333,341.338,322.193,341.338,298.667z M17.071,298.667v-256     c0-14.114,11.486-25.6,25.6-25.6h256c14.114,0,25.6,11.486,25.6,25.6v256c0,14.123-11.486,25.6-25.6,25.6h-256     C28.557,324.267,17.071,312.789,17.071,298.667z" data-original="#000000" class="hovered-path active-path" data-old_color="#000000" fill="#C12020"/>
			<path d="M85.338,51.2c-18.825,0-34.133,15.317-34.133,34.133c0,18.825,15.309,34.133,34.133,34.133     c18.825,0,34.133-15.309,34.133-34.133C119.471,66.517,104.162,51.2,85.338,51.2z M85.338,102.4     c-9.412,0-17.067-7.646-17.067-17.067c0-9.412,7.654-17.067,17.067-17.067c9.404,0,17.067,7.654,17.067,17.067     C102.405,94.754,94.742,102.4,85.338,102.4z" data-original="#000000" class="hovered-path active-path" data-old_color="#000000" fill="#C12020"/>
			<path d="M483.921,188.672L361.195,144c-4.42-1.596-9.327,0.674-10.931,5.103c-1.621,4.429,0.666,9.327,5.094,10.94     l122.726,44.663c13.261,4.83,20.13,19.55,15.3,32.811L405.824,478.08c-4.821,13.269-19.55,20.13-32.811,15.309L132.45,405.828     c-13.252-4.83-20.122-19.55-15.3-32.819l3.994-10.974c1.621-4.429-0.674-9.327-5.094-10.931     c-4.463-1.604-9.327,0.674-10.94,5.103l-3.994,10.965c-8.047,22.11,3.396,46.643,25.506,54.69l240.555,87.561     c4.804,1.741,9.711,2.577,14.541,2.577c17.434-0.008,33.843-10.778,40.141-28.083l87.561-240.563     C517.466,221.244,506.031,196.719,483.921,188.672z" data-original="#000000" class="hovered-path active-path" data-old_color="#000000" fill="#C12020"/>
			<path d="M232.632,354.287c-4.087,7.407-12.757,10.701-20.702,7.825c-4.83-1.758-7.561-5.231-9.003-7.842     c-2.278-4.122-7.475-5.606-11.597-3.337c-4.13,2.287-5.615,7.475-3.337,11.605c4.036,7.279,10.462,12.826,18.099,15.607     c3.866,1.408,7.817,2.082,11.716,2.082c12.092,0,23.578-6.494,29.773-17.707c2.27-4.122,0.768-9.31-3.354-11.588     C240.09,348.655,234.902,350.157,232.632,354.287z" data-original="#000000" class="hovered-path active-path" data-old_color="#000000" fill="#C12020"/>
			<path d="M170.671,136.533c-18.825,0-34.133,15.317-34.133,34.133c0,18.825,15.309,34.133,34.133,34.133     s34.133-15.309,34.133-34.133C204.805,151.851,189.496,136.533,170.671,136.533z M170.671,187.733     c-9.412,0-17.067-7.646-17.067-17.067c0-9.412,7.654-17.067,17.067-17.067c9.404,0,17.067,7.654,17.067,17.067     C187.738,180.087,180.075,187.733,170.671,187.733z" data-original="#000000" class="hovered-path active-path" data-old_color="#000000" fill="#C12020"/>
			<path d="M256.005,221.867c-18.825,0-34.133,15.317-34.133,34.133c0,18.825,15.309,34.133,34.133,34.133     s34.133-15.309,34.133-34.133C290.138,237.184,274.829,221.867,256.005,221.867z M256.005,273.067     c-9.412,0-17.067-7.646-17.067-17.067c0-9.412,7.654-17.067,17.067-17.067c9.404,0,17.067,7.654,17.067,17.067     C273.071,265.421,265.408,273.067,256.005,273.067z" data-original="#000000" class="hovered-path active-path" data-old_color="#000000" fill="#C12020"/>
			<path d="M256.005,51.2c-18.825,0-34.133,15.317-34.133,34.133c0,18.825,15.309,34.133,34.133,34.133s34.133-15.309,34.133-34.133     C290.138,66.517,274.829,51.2,256.005,51.2z M256.005,102.4c-9.412,0-17.067-7.646-17.067-17.067     c0-9.412,7.654-17.067,17.067-17.067c9.404,0,17.067,7.654,17.067,17.067C273.071,94.754,265.408,102.4,256.005,102.4z" data-original="#000000" class="hovered-path active-path" data-old_color="#000000" fill="#C12020"/>
		</g>
	</g>
</g></g> </svg>
