<?xml version="1.0"?>
<svg xmlns="http://www.w3.org/2000/svg" id="Capa_1" enable-background="new 0 0 512.001 512.001" height="512px" viewBox="0 0 512.001 512.001" width="512px"><g><g><path d="m110 310.001v56h-20c-22.056 0-40 17.944-40 40v96c0 5.522 4.478 10 10 10h75c5.522 0 10-4.478 10-10s-4.478-10-10-10h-65v-86c0-11.028 8.972-20 20-20h180c11.028 0 20 8.972 20 20v86h-65c-5.522 0-10 4.478-10 10s4.478 10 10 10h75c5.522 0 10-4.478 10-10v-96c0-22.056-17.944-40-40-40h-20v-48.395c27.65-6.28 57.624-24.762 91.046-56.066 2.572-2.409 3.687-5.993 2.933-9.436-.753-3.442-3.262-6.234-6.604-7.35l-3.116-1.039 32.043-10.678c1.81-.604 3.409-1.711 4.609-3.193 11.827-14.602 23.522-31.787 34.761-51.08 1.697-2.913 1.813-6.486.305-9.503-1.507-3.017-4.433-5.07-7.782-5.462l-5.878-.688 25.649-11.448c2.106-.94 3.823-2.579 4.859-4.641 38.74-77.063 39.175-134.611 39.175-137.023 0-2.711-1.102-5.306-3.052-7.189-1.948-1.884-4.574-2.903-7.291-2.803-2.872.099-71.274 2.914-152.707 46.76-1.347.725-2.509 1.749-3.397 2.993l-20.663 28.932c.005-3.439-1.767-6.678-4.741-8.518-3.321-2.054-7.535-1.984-10.792.176-19.008 12.626-35.371 25.754-48.635 39.017-12.319 12.31-23.143 24.424-32.169 36.006-1.67 2.143-2.396 4.872-2.012 7.562l5.898 41.289-12.639-12.635c-2.29-2.289-5.537-3.326-8.738-2.788-3.191.54-5.925 2.592-7.335 5.507-20.401 42.187-15.503 78.827 14.566 108.909 2.425 2.421 4.911 4.678 7.443 6.784h-55.736c-5.522 0-10 4.477-10 10zm56.218-103.713 23.292 23.285c3.044 3.043 7.695 3.795 11.543 1.872 3.85-1.926 6.035-6.098 5.427-10.358l-9.532-66.729c7.979-9.934 17.353-20.292 27.914-30.845 7.91-7.91 17.057-15.802 27.324-23.582l-1.891 15.283c-.562 4.541 2.03 8.884 6.294 10.545 4.263 1.662 9.109.218 11.769-3.506l42.111-58.966c57.707-30.64 109.017-39.688 130.794-42.285-1.946 19.153-9.023 61.611-34.728 113.861l-55.602 24.815c-4.111 1.835-6.489 6.191-5.81 10.643.681 4.45 4.251 7.897 8.723 8.421l26.591 3.114c-7.636 12.172-15.424 23.271-23.256 33.139l-57.703 19.229c-4.084 1.36-6.838 5.182-6.839 9.485-.001 4.305 2.753 8.126 6.836 9.488l15.248 5.086c-29.173 24.95-69.413 51.17-105.584 38.366 46.618-83.694 108.639-155.902 184.489-214.737 4.364-3.385 5.157-9.666 1.772-14.03-3.386-4.365-9.666-5.157-14.03-1.772-40.078 31.088-77.004 66.489-109.75 105.222-30.295 35.832-57.179 74.721-80.029 115.725-3.121-2.353-6.184-5.014-9.159-7.985-20.581-20.592-25.942-44.501-16.214-72.784zm-36.218 113.683c3 .001 97.8.043 100 .02v46.01h-100z" data-original="#000000" class="active-path" data-old_color="#000000" fill="#FFFFFF"/><circle cx="180" cy="502.001" r="10" data-original="#000000" class="active-path" data-old_color="#000000" fill="#FFFFFF"/></g></g> </svg>
