<?xml version="1.0"?>
<svg xmlns="http://www.w3.org/2000/svg" height="512px" viewBox="-38 0 512 512.00068" width="512px" class=""><g><path d="m123.050781 289.730469h240c5.515625 0 9.988281-4.472657 9.988281-9.992188 0-5.515625-4.472656-9.988281-9.988281-9.988281h-240c-5.519531 0-9.992187 4.472656-9.992187 9.988281 0 5.519531 4.472656 9.992188 9.992187 9.992188zm0 0" data-original="#000000" class="active-path" data-old_color="#000000" fill="#FFFFFF"/><path d="m167.160156 177.585938c1.4375 2.492187 3.882813 4.242187 6.703125 4.800781l36.195313 7.191406 24.316406 27.75c1.894531 2.164063 4.632812 3.40625 7.511719 3.40625 2.878906 0 5.613281-1.242187 7.511719-3.402344l24.339843-27.753906 36.199219-7.191406c2.824219-.558594 5.269531-2.3125 6.707031-4.800781 1.441407-2.496094 1.734375-5.488282.808594-8.210938l-11.886719-34.96875 11.886719-34.96875c.925781-2.726562.632813-5.71875-.808594-8.210938-1.4375-2.492187-3.882812-4.242187-6.707031-4.804687l-36.199219-7.191406-24.339843-27.753907c-1.898438-2.160156-4.632813-3.402343-7.511719-3.402343-2.878907 0-5.617188 1.242187-7.511719 3.40625l-24.3125 27.75-36.199219 7.191406c-2.820312.5625-5.265625 2.3125-6.703125 4.800781-1.4375 2.492188-1.734375 5.484375-.8125 8.207032l11.863282 34.976562-11.863282 34.972656c-.921875 2.726563-.628906 5.714844.8125 8.207032zm31.058594-46.390626-9.289062-27.394531 28.355468-5.632812c2.15625-.429688 4.113282-1.558594 5.566406-3.214844l19.039063-21.730469 19.066406 21.734375c1.449219 1.652344 3.40625 2.78125 5.5625 3.210938l28.347657 5.632812-9.3125 27.390625c-.707032 2.082032-.707032 4.34375 0 6.429688l9.3125 27.390625-28.347657 5.628906c-2.15625.429687-4.113281 1.558594-5.5625 3.210937l-19.066406 21.738282-19.039063-21.734375c-1.453124-1.65625-3.410156-2.785157-5.566406-3.214844l-28.355468-5.632813 9.289062-27.394531c.707031-2.082031.707031-4.335937 0-6.417969zm0 0" data-original="#000000" class="active-path" data-old_color="#000000" fill="#FFFFFF"/><path d="m355.171875 194.910156h.285156c5.515625 0 9.988281-4.472656 9.988281-9.988281 0-5.519531-4.472656-9.992187-9.988281-9.992187h-.285156c-5.515625 0-9.988281 4.472656-9.988281 9.992187 0 5.515625 4.472656 9.988281 9.988281 9.988281zm0 0" data-original="#000000" class="active-path" data-old_color="#000000" fill="#FFFFFF"/><path d="m355.457031 101.394531h.253907c5.515624 0 9.988281-4.472656 9.988281-9.992187 0-5.515625-4.472657-9.988282-9.988281-9.988282h-.253907c-5.519531 0-9.992187 4.472657-9.992187 9.988282 0 5.519531 4.472656 9.992187 9.992187 9.992187zm0 0" data-original="#000000" class="active-path" data-old_color="#000000" fill="#FFFFFF"/><path d="m127.953125 194.910156h.28125c5.519531 0 9.992187-4.472656 9.992187-9.988281 0-5.519531-4.472656-9.992187-9.992187-9.992187h-.28125c-5.519531 0-9.992187 4.472656-9.992187 9.992187 0 5.515625 4.472656 9.988281 9.992187 9.988281zm0 0" data-original="#000000" class="active-path" data-old_color="#000000" fill="#FFFFFF"/><path d="m128.234375 101.394531h.257813c5.515624 0 9.988281-4.472656 9.988281-9.992187 0-5.515625-4.472657-9.988282-9.988281-9.988282h-.257813c-5.515625 0-9.988281 4.472657-9.988281 9.988282 0 5.519531 4.472656 9.992187 9.988281 9.992187zm0 0" data-original="#000000" class="active-path" data-old_color="#000000" fill="#FFFFFF"/><path d="m373.039062 325.066406c0-5.515625-4.472656-9.988281-9.988281-9.988281h-240c-5.515625 0-9.992187 4.472656-9.992187 9.988281 0 5.519532 4.476562 9.992188 9.992187 9.992188h240c5.515625 0 9.988281-4.472656 9.988281-9.992188zm0 0" data-original="#000000" class="active-path" data-old_color="#000000" fill="#FFFFFF"/><path d="m436 399.695312v-377.203124c0-12.402344-10.074219-22.492188-22.457031-22.492188h-368.527344c-24.101563 0-43.710937 19.613281-43.710937 43.722656l-1.304688 401.558594v.007812.027344c0 23.75 19.328125 43.070313 43.085938 43.070313h75.300781v13.625c0 3.523437 1.855469 6.785156 4.882812 8.585937 3.03125 1.800782 6.785157 1.871094 9.878907.1875l38.636718-21.015625 38.636719 21.015625c1.488281.8125 3.128906 1.214844 4.773437 1.214844 1.765626 0 3.53125-.46875 5.105469-1.402344 3.027344-1.800781 4.882813-5.0625 4.882813-8.585937v-13.625h188.359375c12.382812 0 22.457031-10.0625 22.457031-22.433594v-66.246094c0-.003906 0-.007812 0-.011719zm-414.714844-355.972656c0-13.089844 10.644532-23.742187 23.730469-23.742187h15.339844v382.234375h-17.269531c-8.445313 0-16.328126 2.457031-22.984376 6.675781l1.183594-364.828125zm21.800782 424.683594c-12.738282 0-23.105469-10.359375-23.105469-23.089844 0-12.75 10.367187-23.121094 23.105469-23.121094h75.300781v46.210938zm162.121093 16.796875-28.648437-15.582031c-2.976563-1.621094-6.570313-1.621094-9.546875 0l-28.644531 15.582031v-63.007813h66.839843zm208.335938-16.796875h-188.355469v-46.210938h51.75c5.519531 0 9.992188-4.472656 9.992188-9.988281 0-5.519531-4.472657-9.992187-9.992188-9.992187h-196.601562v-382.234375h333.207031c1.34375 0 2.476562 1.148437 2.476562 2.511719v377.203124.007813.007813c-.003906 1.359374-1.132812 2.503906-2.476562 2.503906h-56.753907c-5.519531 0-9.992187 4.472656-9.992187 9.992187 0 5.515625 4.472656 9.988281 9.992187 9.988281h56.753907c.835937 0 1.664062-.050781 2.476562-.140624v43.894531c0 1.332031-1.132812 2.457031-2.476562 2.457031zm0 0" data-original="#000000" class="active-path" data-old_color="#000000" fill="#FFFFFF"/><path d="m317.0625 402.214844h-.199219c-5.515625 0-9.988281 4.472656-9.988281 9.992187 0 5.515625 4.472656 9.988281 9.988281 9.988281h.199219c5.515625 0 9.988281-4.472656 9.988281-9.988281 0-5.519531-4.472656-9.992187-9.988281-9.992187zm0 0" data-original="#000000" class="active-path" data-old_color="#000000" fill="#FFFFFF"/></g> </svg>
