<?xml version="1.0"?>
<svg xmlns="http://www.w3.org/2000/svg" id="Outline" viewBox="0 0 512 512" width="512px" height="512px" class=""><g><path d="M488,120H464v-8a8,8,0,0,0-8-8H432V80a8,8,0,0,0-8-8H256a8,8,0,0,0-6.4,3.2L228,104H56a8,8,0,0,0-8,8v8H24a8,8,0,0,0-8,8V416a8,8,0,0,0,8,8H368v8a8,8,0,0,0,12.438,6.656L400,425.615l19.562,13.041A8,8,0,0,0,432,432v-8h56a8,8,0,0,0,8-8V128A8,8,0,0,0,488,120Zm-40,0V376H432V120Zm-208-5.333L260,88H416V344H256a8,8,0,0,0-6.4,3.2L240,360ZM64,376V360H224v16Zm304-16v16H248l12-16ZM64,120H224V344H64ZM32,408V136H48V384a8,8,0,0,0,8,8H368v16Zm384,9.052-11.562-7.708a8,8,0,0,0-8.876,0L384,417.052V360h32ZM480,408H432V392h24a8,8,0,0,0,8-8V136h16Z" data-original="#000000" class="active-path" data-old_color="#000000" fill="#DBB27A"/><path d="M88,200h48a8,8,0,0,0,8-8V144a8,8,0,0,0-8-8H88a8,8,0,0,0-8,8v48A8,8,0,0,0,88,200Zm8-48h32v32H96Z" data-original="#000000" class="active-path" data-old_color="#000000" fill="#DBB27A"/><path d="M280,232H392a8,8,0,0,0,8-8V176a8,8,0,0,0-8-8H280a8,8,0,0,0-8,8v48A8,8,0,0,0,280,232Zm8-48h96v32H288Z" data-original="#000000" class="active-path" data-old_color="#000000" fill="#DBB27A"/><path d="M200,136H168a8,8,0,0,0-8,8V256a8,8,0,0,0,8,8h32a8,8,0,0,0,8-8V144A8,8,0,0,0,200,136Zm-8,112H176V152h16Z" data-original="#000000" class="active-path" data-old_color="#000000" fill="#DBB27A"/><path d="M136,216H104a8,8,0,0,0,0,16h32a8,8,0,0,0,0-16Z" data-original="#000000" class="active-path" data-old_color="#000000" fill="#DBB27A"/><path d="M88,264h48a8,8,0,0,0,0-16H88a8,8,0,0,0,0,16Z" data-original="#000000" class="active-path" data-old_color="#000000" fill="#DBB27A"/><path d="M296,120h96a8,8,0,0,0,0-16H296a8,8,0,0,0,0,16Z" data-original="#000000" class="active-path" data-old_color="#000000" fill="#DBB27A"/><path d="M280,152H392a8,8,0,0,0,0-16H280a8,8,0,0,0,0,16Z" data-original="#000000" class="active-path" data-old_color="#000000" fill="#DBB27A"/><path d="M280,296H392a8,8,0,0,0,0-16H280a8,8,0,0,0,0,16Z" data-original="#000000" class="active-path" data-old_color="#000000" fill="#DBB27A"/><path d="M280,328H392a8,8,0,0,0,0-16H280a8,8,0,0,0,0,16Z" data-original="#000000" class="active-path" data-old_color="#000000" fill="#DBB27A"/><path d="M280,264H392a8,8,0,0,0,0-16H280a8,8,0,0,0,0,16Z" data-original="#000000" class="active-path" data-old_color="#000000" fill="#DBB27A"/><path d="M200,280H88a8,8,0,0,0,0,16H200a8,8,0,0,0,0-16Z" data-original="#000000" class="active-path" data-old_color="#000000" fill="#DBB27A"/><path d="M200,312H88a8,8,0,0,0,0,16H200a8,8,0,0,0,0-16Z" data-original="#000000" class="active-path" data-old_color="#000000" fill="#DBB27A"/></g> </svg>
