<svg height="512" viewBox="0 0 64 64" width="512" xmlns="http://www.w3.org/2000/svg"><path d="m61 15h-3v-3a1 1 0 0 0 -1-1h-6v-2a4 4 0 0 0 -8 0v2h-7a4.982 4.982 0 0 0 -4 2.031 4.982 4.982 0 0 0 -4-2.031h-21a1 1 0 0 0 -1 1v3h-3a1 1 0 0 0 -1 1v40a1 1 0 0 0 1 1h58a1 1 0 0 0 1-1v-40a1 1 0 0 0 -1-1zm-12 22h-4v-22h4zm-.859 2-1.141 2.551-1.141-2.551zm-3.141-26v-2h4v2zm2-6a2 2 0 0 1 2 2h-4a2 2 0 0 1 2-2zm-11 6h7v24.294a1 1 0 0 0 .087.408l3 6.706a1 1 0 0 0 1.826 0l3-6.706a1 1 0 0 0 .087-.408v-24.294h5v38h-20a4.948 4.948 0 0 0 -3 1.026v-36.026a3 3 0 0 1 3-3zm-28 0h20a3 3 0 0 1 3 3v36.026a4.948 4.948 0 0 0 -3-1.026h-20zm-4 4h2v35a1 1 0 0 0 1 1h21a3 3 0 0 1 2.816 2h-26.816zm56 38h-26.816a3 3 0 0 1 2.816-2h21a1 1 0 0 0 1-1v-35h2z"/><path d="m10 17h19v2h-19z"/><path d="m10 23h8v2h-8z"/><path d="m10 29h13v2h-13z"/><path d="m10 35h4v2h-4z"/><path d="m20 23h9v2h-9z"/><path d="m25 29h4v2h-4z"/><path d="m16 35h13v2h-13z"/></svg>