<svg height="512" viewBox="0 0 64 64" width="512" xmlns="http://www.w3.org/2000/svg"><path d="m61 52h-6.4l4.255-1.14a1 1 0 0 0 .707-1.225l-11.393-42.5a1 1 0 0 0 -1.225-.707l-11.591 3.1a.993.993 0 0 0 -.353.181v-6.709a1 1 0 0 0 -1-1h-28a1 1 0 0 0 -1 1v49h-2a1 1 0 0 0 -1 1v4a1 1 0 0 0 1 1h3v3a1 1 0 0 0 1 1h6a1 1 0 0 0 1-1v-3h36v3a1 1 0 0 0 1 1h6a1 1 0 0 0 1-1v-3h3a1 1 0 0 0 1-1v-4a1 1 0 0 0 -1-1zm-14.5-43.382 10.867 40.569-9.66 2.588-10.871-40.569zm-.8 43.382h-10.7v-39.921zm-12.7 0h-12v-48h12zm-26-36h12v24h-12zm0-4h12v2h-12zm0 30h12v2h-12zm12-38v6h-12v-6zm-12 42h12v6h-12zm5 14h-4v-2h4zm44 0h-4v-2h4zm4-4h-56v-2h56z"/><path d="m39.702 12.776h6v2h-6z" transform="matrix(.966 -.259 .259 .966 -2.11 11.519)"/><path d="m44.299 16.697h2v29h-2z" transform="matrix(.966 -.259 .259 .966 -6.531 12.787)"/><path d="m48.163 15.662h2v29h-2z" transform="matrix(.966 -.259 .259 .966 -6.131 13.752)"/><path d="m49.019 47.549h6v2h-6z" transform="matrix(.966 -.259 .259 .966 -10.792 15.115)"/><path d="m23 7h8v2h-8z"/><path d="m23 11h8v2h-8z"/><path d="m23 15h8v2h-8z"/><path d="m23 39h8v2h-8z"/><path d="m23 43h8v2h-8z"/><path d="m23 47h8v2h-8z"/></svg>