<svg height="480pt" viewBox="0 -48 480.01228 480" width="480pt" xmlns="http://www.w3.org/2000/svg"><path d="m479.4375 372.972656-36.648438-91.605468c28.972657-51.996094 28.226563-115.449219-1.964843-166.746094-30.1875-51.296875-85.296875-82.753906-144.816407-82.671875-4.371093 0-8.671874.28125-12.945312.617187-63.570312-46.703125-151.089844-42.804687-210.253906 9.371094-59.164063 52.171875-73.980469 138.515625-35.59375 207.429688l-36.640625 91.605468c-.988281 2.46875-.6875 5.261719.800781 7.460938 1.488281 2.203125 3.972656 3.519531 6.632812 3.515625 1.199219 0 2.382813-.273438 3.460938-.800781l84.167969-40.390626c26.527343 16.484376 57.140625 25.210938 88.371093 25.191407 4.285157 0 8.496094-.328125 12.710938-.648438 28.714844 21.292969 63.539062 32.746094 99.289062 32.648438 31.230469-.007813 61.84375-8.730469 88.390626-25.183594l84.144531 40.382813c1.078125.527343 2.261719.800781 3.464843.800781 2.65625.003906 5.140626-1.3125 6.628907-3.515625 1.488281-2.199219 1.789062-4.992188.800781-7.460938zm-378.847656-78.03125c-2.347656-1.542968-5.332032-1.746094-7.863282-.527344l-69.664062 33.433594 30.449219-76.113281c.917969-2.296875.722656-4.890625-.53125-7.023437-38.878907-66.574219-21.679688-151.714844 39.992187-197.976563 61.667969-46.261719 148.222656-38.949219 201.257813 17.007813 53.03125 55.953124 55.695312 142.777343 6.195312 201.878906-49.5 59.105468-135.441406 71.714844-199.835937 29.320312zm286.71875 31.480469c-2.523438-1.210937-5.496094-1.011719-7.839844.519531-24.785156 16.304688-53.796875 24.996094-83.460938 25.007813-26.46875.050781-52.484374-6.894531-75.402343-20.136719 60.074219-13.332031 108.027343-58.488281 124.941406-117.65625s.074219-122.847656-43.875-165.917969c53.441406 1.851563 101.953125 31.71875 127.671875 78.601563 25.71875 46.882812 24.835938 103.847656-2.320312 149.910156-1.25 2.132812-1.441407 4.722656-.519532 7.015625l30.445313 76.121094zm0 0"/><path d="m88.007812 231.949219h16v16h-16zm0 0"/><path d="m120.007812 231.949219h16v16h-16zm0 0"/><path d="m152.007812 231.949219h112v16h-112zm0 0"/><path d="m88.007812 183.949219h112v16h-112zm0 0"/><path d="m216.007812 183.949219h16v16h-16zm0 0"/><path d="m248.007812 183.949219h16v16h-16zm0 0"/><path d="m88.007812 135.949219h176v16h-176zm0 0"/><path d="m88.007812 87.949219h64v16h-64zm0 0"/><path d="m168.007812 87.949219h16v16h-16zm0 0"/><path d="m200.007812 87.949219h16v16h-16zm0 0"/><path d="m232.007812 87.949219h32v16h-32zm0 0"/><path d="m372.804688 97.550781-9.597657 12.800781c28.300781 21.066407 44.925781 54.316407 44.800781 89.597657h16c.152344-40.324219-18.851562-78.328125-51.203124-102.398438zm0 0"/></svg>