<?xml version="1.0"?>
<svg xmlns="http://www.w3.org/2000/svg" height="512px" viewBox="0 -26 511.99956 511" width="512px"><g><path d="m511.988281 54.054688c-.289062-14.371094-6.097656-27.832032-16.367187-37.90625-10.285156-10.089844-23.882813-15.648438-38.289063-15.648438-1.015625 0-2.027343.023438-3.03125.074219h-262.515625c-37.90625 0-68.75 34.984375-68.75 77.984375v59.21875l-46.96875-46.96875-32.304687-32.308594c-1.914063-1.910156-4.503907-2.984375-7.207031-2.984375-2.703126 0-5.296876 1.074219-7.207032 2.984375l-4.261718 4.265625-7.6875-7.6875c-3.980469-3.980469-10.433594-3.980469-14.414063 0s-3.980469 10.433594 0 14.414063l7.6875 7.683593-4.265625 4.265625c-3.976562 3.980469-3.976562 10.433594 0 14.414063l32.289062 32.285156c.007813.007813.011719.015625.019532.019531l11.890625 11.890625-8.105469 8.109375-10.945312-10.945312c-3.980469-3.980469-10.429688-3.980469-14.414063 0-3.976563 3.980468-3.976563 10.433594 0 14.414062l18.132813 18.128906c.003906.007813.011718.015626.019531.019532.003906.007812.011719.011718.019531.019531l36.894531 36.894531c1.988281 1.992188 4.597657 2.984375 7.207031 2.984375 2.605469 0 5.214844-.992187 7.203126-2.984375 3.980468-3.980468 3.980468-10.433594 0-14.414062l-29.703126-29.707032 8.105469-8.105468 58.015625 58.019531v134.777344h-2.101562c-27.648438 0-50.140625 25.320312-50.140625 56.441406s22.492187 56.441406 50.140625 56.441406h219.28125c37.910156 0 68.75-34.984375 68.75-77.988281v-263.628906l.027344-8.695313h47.523437c14.917969 0 29.457031-6.105469 39.894531-16.75 10.335938-10.550781 15.871094-24.40625 15.578125-39.027343zm-276.996093 232.765624-10.566407-6.121093 4.320313-4.320313zm-27.152344-18.359374-18.515625-18.515626 8.527343-8.527343 18.515626 18.515625zm-32.925782-32.925782-114.578124-114.578125 8.523437-8.527343 114.578125 114.574218zm-142.652343-151.121094c.011719-.011718.019531-.019531.03125-.03125l.027343-.027343 4.234376-4.234375 17.894531 17.894531-8.527344 8.527344-17.894531-17.894531zm88.671875 355.347657c-16.40625 0-29.757813-16.175781-29.757813-36.058594s13.351563-36.058594 29.757813-36.058594h184.183594c-7.242188 9.785157-11.597657 22.359375-11.597657 36.058594s4.3125 26.273437 11.523438 36.058594zm267.648437-321.265625v263.660156c0 30.964844-20.617187 56.300781-46.363281 57.554688-15.890625-.917969-28.316406-16.695313-28.316406-36.007813 0-19.882813 13.347656-36.058594 29.757812-36.058594 5.628906 0 10.191406-4.5625 10.191406-10.191406s-4.5625-10.191406-10.191406-10.191406h-200.242187v-114.394531l24.289062 24.285156 32.925781 32.925781c.003907.003906.007813.007813.007813.007813.015625.015624.027344.027343.042969.042968.050781.046875.101562.097656.152344.144532.027343.027343.050781.050781.078124.074218.039063.039063.078126.074219.117188.109375.035156.027344.066406.054688.097656.085938.035156.03125.074219.0625.109375.09375.03125.027343.066407.054687.097657.082031.039062.03125.078124.0625.113281.089844.035156.027344.066406.054687.101562.082031.039063.03125.078125.0625.117188.089844.035156.027343.066406.050781.101562.078125.046875.035156.097657.070312.148438.105468.054687.039063.105469.074219.160156.113282.042969.027344.082031.054687.125.085937.035156.023438.074219.046875.109375.070313.039062.027344.078125.050781.117188.074218.039062.027344.078124.050782.117187.074219.039063.023438.082031.046875.121094.070313.023437.011718.042969.027344.066406.039062l42.105469 24.378906c2.296875 1.332032 4.792968 1.980469 7.261718 1.980469.941407 0 1.882813-.097656 2.804688-.285156.742188.175781 1.519531.265625 2.316406.265625h78.472656c5.625 0 10.191407-4.5625 10.191407-10.191406s-4.566407-10.191406-10.191407-10.191406h-70.5625c-.222656-.476563-.46875-.949219-.746093-1.410157l-24.753907-41.355469c-.363281-.636718-.800781-1.242187-1.3125-1.804687-.019531-.023437-.039062-.042969-.058593-.066406-.042969-.042969-.082031-.085938-.125-.128907-.027344-.03125-.058594-.058593-.089844-.089843-.019531-.023438-.042969-.046875-.0625-.066407l-32.90625-32.90625c-.007813-.007812-.015625-.015624-.019531-.019531l-61.640625-61.640625v-79.601562c0-31.761719 21.695312-57.601563 48.367187-57.601563h219.175782c-13.746094 14.269531-22.378907 34.777344-22.378907 57.527344v.054687.023438c0 .015625.007813 5.316406.019531 10.609375.003907 2.648437.007813 5.296875.015626 7.28125l.011718 2.425781c.003906.273438.011719.542969.023438.808594zm93.269531-39.683594c-6.722656 6.859375-15.722656 10.640625-25.335937 10.640625h-47.53125c-.003906-1.550781-.007813-3.117187-.007813-4.578125 0-.082031 0-.164062 0-.246094 0-.117187 0-.230468 0-.347656 0-.152344 0-.304688 0-.457031 0-.039063 0-.082031 0-.125-.003906-2.292969-.007812-4.207031-.007812-5.167969.011719-31.75 21.703125-57.574219 48.367188-57.574219.363281 0 .726562-.019531 1.082031-.058593 18.042969.574218 32.832031 15.410156 33.195312 33.5625.179688 9.101562-3.285156 17.746093-9.761719 24.351562zm0 0" data-original="#000000" class="active-path" data-old_color="#000000" fill="#FFFFFF"/><path d="m335.695312 254.246094h-40.414062c-5.628906 0-10.191406 4.5625-10.191406 10.191406s4.5625 10.191406 10.191406 10.191406h40.414062c5.625 0 10.191407-4.5625 10.191407-10.191406s-4.566407-10.191406-10.191407-10.191406zm0 0" data-original="#000000" class="active-path" data-old_color="#000000" fill="#FFFFFF"/><path d="m335.695312 210.847656h-78.472656c-5.628906 0-10.191406 4.5625-10.191406 10.1875 0 5.628906 4.5625 10.191406 10.191406 10.191406h78.472656c5.625 0 10.191407-4.5625 10.191407-10.191406 0-5.625-4.566407-10.1875-10.191407-10.1875zm0 0" data-original="#000000" class="active-path" data-old_color="#000000" fill="#FFFFFF"/><path d="m335.695312 167.441406h-140.082031c-5.628906 0-10.191406 4.5625-10.191406 10.191406 0 5.628907 4.5625 10.191407 10.191406 10.191407h140.082031c5.625 0 10.191407-4.5625 10.191407-10.191407 0-5.628906-4.566407-10.191406-10.191407-10.191406zm0 0" data-original="#000000" class="active-path" data-old_color="#000000" fill="#FFFFFF"/><path d="m335.695312 124.042969h-23.441406c-5.625 0-10.191406 4.5625-10.191406 10.1875 0 5.628906 4.566406 10.191406 10.191406 10.191406h23.441406c5.625 0 10.191407-4.5625 10.191407-10.191406 0-5.625-4.566407-10.1875-10.191407-10.1875zm0 0" data-original="#000000" class="active-path" data-old_color="#000000" fill="#FFFFFF"/><path d="m231.066406 144.421875c5.625 0 10.191406-4.5625 10.191406-10.191406 0-5.625-4.566406-10.1875-10.191406-10.1875h-40.085937c-5.628907 0-10.191407 4.5625-10.191407 10.1875 0 5.628906 4.5625 10.191406 10.191407 10.191406zm0 0" data-original="#000000" class="active-path" data-old_color="#000000" fill="#FFFFFF"/><path d="m335.695312 80.636719h-144.714843c-5.628907 0-10.191407 4.5625-10.191407 10.191406s4.5625 10.191406 10.191407 10.191406h144.714843c5.625 0 10.191407-4.5625 10.191407-10.191406s-4.566407-10.191406-10.191407-10.191406zm0 0" data-original="#000000" class="active-path" data-old_color="#000000" fill="#FFFFFF"/><path d="m271.082031 144.664062c1.269531 0 2.5625-.238281 3.8125-.742187 5.21875-2.109375 7.742188-8.050781 5.632813-13.269531l-.195313-.480469c-2.109375-5.21875-8.050781-7.738281-13.269531-5.628906-5.214844 2.109375-7.738281 8.050781-5.628906 13.269531l.195312.480469c1.601563 3.964843 5.421875 6.371093 9.453125 6.371093zm0 0" data-original="#000000" class="active-path" data-old_color="#000000" fill="#FFFFFF"/></g> </svg>
