<svg height="512" viewBox="0 0 60 59" width="512" xmlns="http://www.w3.org/2000/svg"><g id="Page-1" fill="none" fill-rule="evenodd"><g id="028---Dice" fill-rule="nonzero" transform="translate(-1)"><path id="Shape" d="m39.47 28.93c12.76-3 18.53-10.93 18.53-10.93h-6l1-7c-2.6306552 3.8548793-6.6264217 6.5675687-11.18 7.59l-26.97 3.82c-7.01 1.93-7.85 8.85-7.85 11.59v6l3.06.92v-.01c-.53881354-2.4825144.1878225-5.0706871 1.94-6.91 1.394919-1.4577589 3.3677109-2.216807 5.38-2.07z" fill="#802f34"/><path id="Shape" d="m43.5 37.01c5.61.16 7.5 3.05 7.5 5.09v5.9l-15 1 6-12z" fill="#802f34"/><path id="Shape" d="m60.97 31.757c-.1342322-.5352153-.6766155-.8605558-1.212-.727l-2.758.689v-2.719c0-.5522847-.4477153-1-1-1s-1 .4477153-1 1v2.719l-2.758-.689c-.3498693-.0959435-.72426.0051249-.9783171.2641012-.2540571.2589762-.3479281.635236-.2452935.9832013.1026346.3479652.385675.6130526.7396106.6926975l2.542.63-2.1 2.8c-.3313708.4418278-.2418278 1.0686292.2 1.4s1.0686292.2418278 1.4-.2l2.2-2.934 2.2 2.934c.2143594.2858125.5649147.4355547.9196152.3928203.3547006-.0427344.6596589-.2714531.8-.6.1403412-.3285469.0947442-.7070078-.1196152-.9928203l-2.1-2.8 2.538-.635c.5352823-.1320344.8627194-.6723951.732-1.208z" fill="#3f5c6c"/><path id="Shape" d="m9.758 3.03-2.758.689v-2.719c0-.55228475-.44771525-1-1-1s-1 .44771525-1 1v2.719l-2.758-.689c-.34986931-.09594353-.72425997.00512494-.97831707.26410116s-.3479281.63523602-.24529352.9832013.38567503.61305264.73961059.69269754l2.542.635-2.1 2.795c-.21435936.28581247-.25995644.66427345-.11961526.99282033.14034119.32854689.44529947.5572656.80000001.60000001.35470055.04273436.7052559-.10700786.91961525-.39282034l2.2-2.934 2.2 2.934c.33137085.4418278.9581722.5313708 1.4.2.4418278-.33137085.5313708-.9581722.2-1.4l-2.1-2.795 2.542-.635c.3539356-.0796449.636976-.34473226.7396106-.69269754s.0087636-.72422508-.2452935-.9832013-.6284478-.36004469-.9783171-.26410116z" fill="#3f5c6c"/><path id="Shape" d="m44.73 39.46-6.47-12.95c-.1652271-.3124662-.4778461-.5196234-.83-.55l-1.31-.08 5.53-5.53c.2215342-.2199815.328633-.5301989.29-.84l-.12-.92-1.73-13.87c-.0250206-.21447829-.1198964-.41477156-.27-.57-.1481454-.14496361-.3361579-.24245159-.54-.28l-14.82-2.78c-.2910419-.05818718-.5927537.01908046-.82.21l-11.16 9.3c-.1389225.1118265-.2430065.2610137-.3.43-.0649295.1865511-.0753361.3877455-.03.58l2.7 10.8.99 3.97c.0984212.3784766.405905.6664995.79.74l3.52.66-2.77 4.15-3.04 4.56c-.2092202.3157027-.2208535.7228666-.03 1.05l4.35 7.61v.01c.34.84 3.97 3.44 6.44 3.74.3.03.6.07.9.1 6.04.64 13-1 14.4-2.68l4.24-5.83c.1106715-.1446087.1767074-.3183873.19-.5.0174408-.1825678-.0172331-.3663393-.1-.53z" fill="#ecf0f1"/><path id="Shape" d="m30.89 25.55-8.31-.51c-.1727031-.0134757-.3457647.0211366-.5.1-.1649904.069721-.3046093.1883971-.4.34l-1.53 2.3-3.52-.66c-.384095-.0735005-.6915788-.3615234-.79-.74l-.99-3.97-2.7-10.8c-.0453361-.1922545-.0349295-.3934489.03-.58l15.82 2.97z" fill="#bdc3c7"/><path id="Shape" d="m39.82 4.15-11.82 9.85-15.82-2.97c.0569935-.1689863.1610775-.3181735.3-.43l11.16-9.3c.2272463-.19091954.5289581-.26818718.82-.21l14.82 2.78c.2038421.03754841.3918546.13503639.54.28z" fill="#ecf0f1"/><path id="Shape" d="m41.94 19.51c.038633.3098011-.0684658.6200185-.29.84l-5.53 5.53h-.01l-5.22-.32v-.01l-2.89-11.55 11.82-9.85c.1501036.15522844.2449794.35552171.27.57l1.73 13.87z" fill="#d1d4d1"/><path id="Shape" d="m44.83 39.99c-.0132926.1816127-.0793285.3553913-.19.5l-4.24 5.83c-4.7731029.677794-9.6146213.7248643-14.4.14-.3-.03-.6-.07-.9-.1l4.9-7.36z" fill="#d1d4d1"/><path id="Shape" d="m30 39-4.9 7.36c-2.1718765-.2503099-4.3237286-.6512761-6.44-1.2v-.01l-4.35-7.61c-.1908535-.3271334-.1792202-.7342973.03-1.05l3.04-4.56 2.77-4.15 1.53-2.3c.0953907-.1516029.2350096-.270279.4-.34z" fill="#bdc3c7"/><path id="Shape" d="m44.83 39.99-14.83-.99-7.92-13.86c.1542353-.0788634.3272969-.1134757.5-.1l8.31.51v.01l5.22.32h.01l1.31.08c.3521539.0303766.6647729.2375338.83.55l6.47 12.95c.0827669.1636607.1174408.3474322.1.53z" fill="#ecf0f1"/><g fill="#35495e"><circle id="Oval" cx="37" cy="12" r="1"/><circle id="Oval" cx="34" cy="22" r="1"/><circle id="Oval" cx="36" cy="29" r="1"/><circle id="Oval" cx="39" cy="36" r="1"/><circle id="Oval" cx="33" cy="36" r="1"/><circle id="Oval" cx="38" cy="43" r="1"/><circle id="Oval" cx="22" cy="32" r="1"/><circle id="Oval" cx="22" cy="37" r="1"/><circle id="Oval" cx="22" cy="42" r="1"/><circle id="Oval" cx="29" cy="29" r="1"/><circle id="Oval" cx="32" cy="6" r="1"/><circle id="Oval" cx="25" cy="5" r="1"/><circle id="Oval" cx="27" cy="10" r="1"/><circle id="Oval" cx="20" cy="9" r="1"/><circle id="Oval" cx="17" cy="16" r="1"/><circle id="Oval" cx="21" cy="20" r="1"/></g><path id="Shape" d="m51 42.1v8.22c.0075332 2.845098-1.713957 5.4095248-4.35 6.48-3.76 1.5-10.26 2.91-20.65 1.8-19-2.02-19-10.43-19-12.46v-12.14c0 1.72 0 8.05 11.66 11.15v.01c2.1162714.5487239 4.2681235.9496901 6.44 1.2.3.03.6.07.9.1 4.7853787.5848643 9.6268971.537794 14.4-.14 7.81-1.25 10.6-4.22 10.6-4.22z" fill="#cc4b4c"/></g></g></svg>