<?xml version="1.0"?>
<svg xmlns="http://www.w3.org/2000/svg" height="512px" viewBox="0 -9 511.99933 511" width="512px" class=""><g><path d="m281.082031 62.140625c-15.9375-2.476563-30.957031 8.460937-33.488281 24.421875-1.207031 7.734375.667969 15.472656 5.28125 21.785156 4.613281 6.316406 11.414062 10.457032 19.148438 11.660156 1.523437.238282 3.039062.351563 4.535156.351563 14.175781 0 26.671875-10.324219 28.929687-24.742187 2.484375-15.925782-8.449219-30.9375-24.375-33.46875-.011719-.003907-.019531-.003907-.03125-.007813zm4.667969 30.394531c-.789062 5.058594-5.570312 8.527344-10.648438 7.734375-2.464843-.382812-4.628906-1.699219-6.09375-3.707031-1.464843-2.003906-2.058593-4.460938-1.679687-6.894531.730469-4.601563 4.722656-7.898438 9.238281-7.898438.46875 0 .945313.035157 1.425782.109375 5.066406.8125 8.546874 5.59375 7.757812 10.65625zm0 0" data-original="#000000" class="active-path" data-old_color="#000000" fill="#FFFFFF"/><path d="m313.449219 162.417969c-1.226563 7.710937.632812 15.4375 5.234375 21.765625 4.617187 6.34375 11.421875 10.5 19.167968 11.710937 1.519532.238281 3.027344.355469 4.523438.351563 14.15625 0 26.671875-10.316406 28.964844-24.742188 1.207031-7.730468-.667969-15.46875-5.277344-21.792968-4.613281-6.328126-11.417969-10.476563-19.15625-11.679688h.003906c-15.964844-2.488281-30.976562 8.464844-33.460937 24.386719zm36.472656-.9375c1.46875 2.015625 2.0625 4.480469 1.683594 6.914062-.808594 5.070313-5.601563 8.546875-10.675781 7.761719-2.457032-.382812-4.621094-1.707031-6.089844-3.726562-1.457032-2.003907-2.046875-4.441407-1.65625-6.902344.71875-4.585938 4.691406-7.871094 9.203125-7.871094.476562 0 .960937.035156 1.445312.113281 2.457031.382813 4.621094 1.699219 6.089844 3.710938zm0 0" data-original="#000000" class="active-path" data-old_color="#000000" fill="#FFFFFF"/><path d="m382.589844 268.117188c4.613281 6.324218 11.417968 10.476562 19.152344 11.679687 1.527343.242187 3.058593.359375 4.578124.359375 6.152344 0 12.128907-1.9375 17.199219-5.632812 6.332031-4.613282 10.480469-11.410157 11.6875-19.140626 1.207031-7.722656-.667969-15.457031-5.28125-21.777343-4.617187-6.320313-11.417969-10.46875-19.152343-11.675781-15.960938-2.488282-30.96875 8.449218-33.460938 24.390624-1.207031 7.734376.667969 15.472657 5.277344 21.796876zm14.460937-18.710938c.714844-4.574219 4.6875-7.847656 9.191407-7.847656.480468 0 .964843.035156 1.449218.113281h.007813c2.457031.382813 4.621093 1.703125 6.089843 3.714844 1.464844 2.007812 2.0625 4.460937 1.679688 6.914062s-1.703125 4.613281-3.714844 6.078125c-2.011718 1.46875-4.476562 2.066406-6.933594 1.679688-2.460937-.382813-4.621093-1.699219-6.089843-3.710938-1.46875-2.015625-2.066407-4.480468-1.679688-6.941406zm0 0" data-original="#000000" class="active-path" data-old_color="#000000" fill="#FFFFFF"/><path d="m502.109375 53.855469c-8.085937-11.085938-19.964844-18.351563-33.445313-20.464844l-56.15625-8.78125c-5.4375-.851563-10.5625 2.875-11.410156 8.328125-.855468 5.449219 2.875 10.558594 8.324219 11.410156l56.152344 8.78125c8.210937 1.285156 15.453125 5.726563 20.398437 12.5 4.941406 6.773438 6.953125 15.019532 5.664063 23.21875l-32.316407 206.1875c-2.414062 15.402344-15.769531 26.441406-30.90625 26.441406-1.589843 0-3.199218-.121093-4.820312-.375l-112.203125-17.570312v-69.972656c0-28.25-22.996094-51.234375-51.261719-51.234375h-57.863281l21.214844-135.417969c1.285156-8.210938 5.734375-15.453125 12.523437-20.398438 6.777344-4.933593 15.019532-6.9375 23.226563-5.640624l71.71875 11.273437c5.441406.855469 10.5625-2.867187 11.417969-8.316406.855468-5.449219-2.867188-10.5625-8.316407-11.417969l-71.710937-11.273438c-13.476563-2.128906-27 1.148438-38.097656 9.226563-11.105469 8.085937-18.382813 19.964844-20.5 33.453125l-21.695313 138.515625h-130.785156c-28.265625-.003906-51.261719 22.980469-51.261719 51.230469v208.679687c0 28.265625 22.996094 51.257813 51.261719 51.257813h208.867187c28.265625 0 51.261719-22.992188 51.261719-51.257813v-118.484375l109.125 17.085938c2.65625.414062 5.292969.613281 7.898437.613281 24.804688 0 46.6875-18.089844 50.644532-43.324219l32.316406-206.183594c2.113281-13.476562-1.175781-27.003906-9.265625-38.089843zm-210.695313 388.382812c0 17.246094-14.035156 31.28125-31.285156 31.28125h-208.867187c-17.25 0-31.285157-14.035156-31.285157-31.28125v-208.679687c0-17.234375 14.035157-31.253906 31.285157-31.253906h139.304687.039063.03125 69.492187c17.25 0 31.28125 14.019531 31.28125 31.253906v208.679687zm0 0" data-original="#000000" class="active-path" data-old_color="#000000" fill="#FFFFFF"/><path d="m79.242188 239.714844c-16.152344 0-29.292969 13.132812-29.292969 29.277344 0 16.144531 13.140625 29.28125 29.292969 29.28125 16.167968 0 29.320312-13.136719 29.320312-29.28125 0-16.144532-13.152344-29.277344-29.320312-29.277344zm0 38.578125c-5.136719 0-9.316407-4.171875-9.316407-9.300781 0-5.125 4.179688-9.300782 9.316407-9.300782 5.152343 0 9.34375 4.175782 9.34375 9.300782 0 5.128906-4.191407 9.300781-9.34375 9.300781zm0 0" data-original="#000000" class="active-path" data-old_color="#000000" fill="#FFFFFF"/><path d="m156.035156 304.496094c-16.152344 0-29.292968 13.136718-29.292968 29.277344 0 16.160156 13.140624 29.308593 29.292968 29.308593s29.292969-13.144531 29.292969-29.308593c0-16.140626-13.140625-29.277344-29.292969-29.277344zm0 38.609375c-5.136718 0-9.316406-4.183594-9.316406-9.328125 0-5.128906 4.179688-9.300782 9.316406-9.300782 5.136719 0 9.316406 4.171876 9.316406 9.300782 0 5.144531-4.179687 9.328125-9.316406 9.328125zm0 0" data-original="#000000" class="active-path" data-old_color="#000000" fill="#FFFFFF"/><path d="m232.121094 240.023438c-16.152344 0-29.292969 13.136718-29.292969 29.28125 0 16.144531 13.140625 29.277343 29.292969 29.277343 16.167968 0 29.320312-13.132812 29.320312-29.277343 0-16.144532-13.15625-29.28125-29.320312-29.28125zm0 38.582031c-5.136719 0-9.316406-4.171875-9.316406-9.300781 0-5.128907 4.179687-9.300782 9.316406-9.300782 5.152344 0 9.34375 4.171875 9.34375 9.300782 0 5.128906-4.191406 9.300781-9.34375 9.300781zm0 0" data-original="#000000" class="active-path" data-old_color="#000000" fill="#FFFFFF"/><path d="m79.242188 377.210938c-16.152344 0-29.292969 13.132812-29.292969 29.277343s13.140625 29.28125 29.292969 29.28125c16.167968 0 29.320312-13.136719 29.320312-29.28125s-13.152344-29.277343-29.320312-29.277343zm0 38.578124c-5.136719 0-9.316407-4.171874-9.316407-9.300781 0-5.128906 4.179688-9.300781 9.316407-9.300781 5.152343 0 9.34375 4.171875 9.34375 9.300781 0 5.128907-4.191407 9.300781-9.34375 9.300781zm0 0" data-original="#000000" class="active-path" data-old_color="#000000" fill="#FFFFFF"/><path d="m232.121094 377.523438c-16.152344 0-29.292969 13.132812-29.292969 29.277343s13.140625 29.28125 29.292969 29.28125c16.167968 0 29.320312-13.136719 29.320312-29.28125s-13.15625-29.277343-29.320312-29.277343zm0 38.578124c-5.136719 0-9.316406-4.171874-9.316406-9.300781 0-5.128906 4.179687-9.300781 9.316406-9.300781 5.152344 0 9.34375 4.171875 9.34375 9.300781 0 5.128907-4.191406 9.300781-9.34375 9.300781zm0 0" data-original="#000000" class="active-path" data-old_color="#000000" fill="#FFFFFF"/><path d="m370.34375 38.242188.171875.027343c.554687.09375 1.105469.140625 1.652344.140625 4.796875 0 9.027343-3.464844 9.839843-8.347656.90625-5.441406-2.769531-10.589844-8.207031-11.496094l-.171875-.027344c-5.453125-.910156-10.589844 2.769532-11.496094 8.210938-.90625 5.4375 2.769532 10.585938 8.210938 11.492188zm0 0" data-original="#000000" class="active-path" data-old_color="#000000" fill="#FFFFFF"/></g> </svg>
