<?xml version="1.0"?>
<svg xmlns="http://www.w3.org/2000/svg" width="512" height="512" viewBox="0 0 128 128"><g><path d="M123.007,120.61,101.275,83.832a7.649,7.649,0,0,0,7-7.611,7.488,7.488,0,0,0-.333-2.207,11.914,11.914,0,0,0-5.957-17.086A15.22,15.22,0,0,0,89.041,49.69,14.989,14.989,0,0,0,82.1,51.384L65.507,23.3a1.75,1.75,0,0,0-3.013,0l-5.1,8.623a13.361,13.361,0,0,0-20.784,1.147,11.279,11.279,0,1,0-1.16,22.5,11.179,11.179,0,0,0,4.871-1.11A11.256,11.256,0,0,0,42.631,56.9L4.993,120.61A1.75,1.75,0,0,0,6.5,123.25h115a1.75,1.75,0,0,0,1.507-2.64Zm-23.74-61.4a1.75,1.75,0,0,0,.984.812,8.413,8.413,0,0,1,4.308,12.792,1.751,1.751,0,0,0-.157,1.715,4.1,4.1,0,0,1,.373,1.691,4.131,4.131,0,0,1-5.711,3.83,1.756,1.756,0,0,0-1.766.261,9.11,9.11,0,0,1-5.789,2.077,9.26,9.26,0,0,1-8.389-5.395,1.75,1.75,0,0,0-2.605-.7,9.227,9.227,0,1,1-8.291-16.266A1.751,1.751,0,0,0,73.41,58.5a4.147,4.147,0,0,1,4.1-3.836,4.093,4.093,0,0,1,2.468.841,1.749,1.749,0,0,0,2.1,0,11.558,11.558,0,0,1,6.962-2.321A11.719,11.719,0,0,1,99.267,59.211Zm-57.85-8.848a1.746,1.746,0,0,0-1.467.264,7.777,7.777,0,1,1-4.5-14.119,7.806,7.806,0,0,1,1.635.176,1.751,1.751,0,0,0,1.87-.817,9.906,9.906,0,0,1,17.194.238,1.75,1.75,0,0,0,.984.812,7.082,7.082,0,0,1,.589,13.239,1.752,1.752,0,0,0-.922.932,7.775,7.775,0,0,1-14.248.236A1.75,1.75,0,0,0,41.417,50.363ZM9.566,119.75l36.1-61.108a11.241,11.241,0,0,0,14.075-5.569,10.577,10.577,0,0,0,.272-18.7L64,27.63,77.923,51.193c-.137-.007-.272-.025-.409-.025a7.664,7.664,0,0,0-7.423,5.937,12.729,12.729,0,1,0,10.79,23.047,12.768,12.768,0,0,0,10.628,5.737,12.488,12.488,0,0,0,6.008-1.536l20.916,35.4Z"/><path d="M22.792,12.25h2.25V14.5a1.75,1.75,0,0,0,3.5,0V12.25h2.25a1.75,1.75,0,0,0,0-3.5h-2.25V6.5a1.75,1.75,0,0,0-3.5,0V8.75h-2.25a1.75,1.75,0,0,0,0,3.5Z"/><path d="M78,17.917h2.25v2.25a1.75,1.75,0,0,0,3.5,0v-2.25H86a1.75,1.75,0,0,0,0-3.5H83.75v-2.25a1.75,1.75,0,0,0-3.5,0v2.25H78a1.75,1.75,0,1,0,0,3.5Z"/><path d="M87.75,96.75H85.5V94.5a1.75,1.75,0,0,0-3.5,0v2.25H79.75a1.75,1.75,0,0,0,0,3.5H82v2.25a1.75,1.75,0,0,0,3.5,0v-2.25h2.25a1.75,1.75,0,0,0,0-3.5Z"/><path d="M6.5,49.375H8.75v2.25a1.75,1.75,0,0,0,3.5,0v-2.25H14.5a1.75,1.75,0,0,0,0-3.5H12.25v-2.25a1.75,1.75,0,0,0-3.5,0v2.25H6.5a1.75,1.75,0,0,0,0,3.5Z"/><path d="M110.187,45.875a1.75,1.75,0,0,0,0,3.5h2.25v2.25a1.75,1.75,0,1,0,3.5,0v-2.25h2.25a1.75,1.75,0,1,0,0-3.5h-2.25v-2.25a1.75,1.75,0,0,0-3.5,0v2.25Z"/><path d="M106.187,32.417a5.75,5.75,0,1,0-5.75-5.75A5.757,5.757,0,0,0,106.187,32.417Zm0-8a2.25,2.25,0,1,1-2.25,2.25A2.252,2.252,0,0,1,106.187,24.417Z"/><path d="M52.75,72.225a5.75,5.75,0,1,0,5.75,5.75A5.757,5.757,0,0,0,52.75,72.225Zm0,8A2.25,2.25,0,1,1,55,77.975,2.253,2.253,0,0,1,52.75,80.225Z"/></g></svg>
