<?xml version="1.0"?>
<svg xmlns="http://www.w3.org/2000/svg" xmlns:xlink="http://www.w3.org/1999/xlink" version="1.1" id="Capa_1" x="0px" y="0px" viewBox="0 0 512 512" style="enable-background:new 0 0 512 512;" xml:space="preserve" width="512px" height="512px"><g><g>
	<g>
		<path d="M510.846,93.068c-1.806-6.667-5.533-9.978-8.341-11.581c-6.485-3.705-13.723-2.324-20.484,0.939V35    c0-5.522-4.477-10-10-10h-28V10c0-5.522-4.477-10-10-10H261.463c-7.861,0-15.035,2.994-20.442,7.903    C235.614,2.994,228.44,0,220.579,0H48.021c-5.523,0-10,4.478-10,10v15h-28c-5.523,0-10,4.478-10,10v346.3c0,5.522,4.477,10,10,10    h258.831l-20.77,27.12c0.002,0.003,0.004,0.006,0.006,0.009c-1.291,1.685-2.067,3.785-2.067,6.072V502c0,5.522,4.477,10,10,10    h168.333c5.523,0,10-4.478,10-10v-77.5c0-2.289-0.777-4.391-2.071-6.077c0.004-0.001,0.006-0.002,0.01-0.003l-20.771-27.12h60.498    c5.523,0,10-4.478,10-10V210.9c0-0.812-0.107-1.596-0.29-2.352c4.031-9.793,7.906-19.753,11.421-29.428    C508.738,136.208,514.691,107.257,510.846,93.068z M231.021,371.3h-211V45h18v299.313c0,5.522,4.477,10,10,10h172.558    c5.758,0,10.442,4.685,10.442,10.442V371.3z M231.021,336.165c-3.259-1.194-6.774-1.853-10.442-1.853H58.021V20h162.558    c5.758,0,10.442,4.685,10.442,10.442V336.165z M472.007,114.732l-59.726,104.595l-6.984-24.01    c11.567-16.559,24.694-33.796,37.449-49.001C454.978,131.734,464.585,121.673,472.007,114.732z M298.187,372.5v-28h42.617    l-15.988,28H298.187z M313.396,392.5l-12.562,22h-24.558l16.849-22H313.396z M336.427,392.5h50.823l16.849,22h-80.235    L336.427,392.5z M382.187,344.5v28h-34.339l15.988-28H382.187z M382.222,231.148c2.561-4.445,5.444-9.18,8.566-14.103    l7.693,26.448l-30.995,54.281C366.004,280.624,367.745,256.271,382.222,231.148z M386.383,305.014l30.886-54.089l29.091-12.056    c-4.087,8.454-8.024,16.034-11.579,22.202C422.523,282.344,402.545,296.438,386.383,305.014z M251.02,30.442    C251.021,24.685,255.706,20,261.463,20h162.558v69c0,5.522,4.477,10,10,10s10-4.478,10-10V45h18v51.342    c0,0.142,0.015,0.281,0.021,0.422c-8.872,7.9-19.015,18.477-30.249,31.551c-24.326,28.311-51.211,65.623-66.9,92.848    c-26.405,45.823-16.969,89.162-12.693,103.338h-64.013c-5.46,0-9.89,4.377-9.991,9.813h-16.734c-3.668,0-7.183,0.659-10.442,1.853    V30.442z M251.02,371.3v-6.545h0.001c0-5.758,4.685-10.442,10.442-10.442h16.724V371.3H251.02z M414.354,434.5V492H266.021v-57.5    h23.392l-9.366,16.402c-2.738,4.796-1.071,10.904,3.726,13.643c1.564,0.894,3.268,1.318,4.949,1.318    c3.473,0,6.848-1.812,8.693-5.043l15.029-26.32H414.354z M462.021,371.3h-59.833v-16.987h31.833c5.523,0,10-4.478,10-10V325.6    c0-5.522-4.477-10-10-10s-10,4.478-10,10v8.713h-21.843c-0.1-5.369-4.426-9.698-9.794-9.802    c19.134-9.628,44.177-26.47,59.727-53.453c3.09-5.363,6.438-11.691,9.91-18.689V371.3z M475.658,168.667    c-5.055,14.182-11.026,29.252-17.163,43.523l-25.03,10.373l55.226-96.715C486.198,136.53,482.103,150.584,475.658,168.667z" data-original="#000000" class="active-path" data-old_color="#000000" fill="#04458F"/>
	</g>
</g><g>
	<g>
		<path d="M84.771,61.987h-0.25c-5.523,0-10,4.478-10,10c0,5.522,4.477,10,10,10h0.25c5.523,0,10-4.478,10-10    C94.771,66.465,90.294,61.987,84.771,61.987z" data-original="#000000" class="active-path" data-old_color="#000000" fill="#04458F"/>
	</g>
</g><g>
	<g>
		<path d="M204.521,61.987h-89.25c-5.523,0-10,4.478-10,10c0,5.522,4.477,10,10,10h89.25c5.523,0,10-4.478,10-10    C214.521,66.465,210.044,61.987,204.521,61.987z" data-original="#000000" class="active-path" data-old_color="#000000" fill="#04458F"/>
	</g>
</g><g>
	<g>
		<path d="M84.771,110.994h-0.25c-5.523,0-10,4.478-10,10c0,5.522,4.477,10,10,10h0.25c5.523,0,10-4.478,10-10    C94.771,115.472,90.294,110.994,84.771,110.994z" data-original="#000000" class="active-path" data-old_color="#000000" fill="#04458F"/>
	</g>
</g><g>
	<g>
		<path d="M204.521,110.994h-89.25c-5.523,0-10,4.478-10,10c0,5.522,4.477,10,10,10h89.25c5.523,0,10-4.478,10-10    C214.521,115.472,210.044,110.994,204.521,110.994z" data-original="#000000" class="active-path" data-old_color="#000000" fill="#04458F"/>
	</g>
</g><g>
	<g>
		<path d="M84.771,160h-0.25c-5.523,0-10,4.478-10,10c0,5.522,4.477,10,10,10h0.25c5.523,0,10-4.478,10-10    C94.771,164.478,90.294,160,84.771,160z" data-original="#000000" class="active-path" data-old_color="#000000" fill="#04458F"/>
	</g>
</g><g>
	<g>
		<path d="M204.521,160h-89.25c-5.523,0-10,4.478-10,10c0,5.522,4.477,10,10,10h89.25c5.523,0,10-4.478,10-10    C214.521,164.478,210.044,160,204.521,160z" data-original="#000000" class="active-path" data-old_color="#000000" fill="#04458F"/>
	</g>
</g><g>
	<g>
		<path d="M84.771,209.006h-0.25c-5.523,0-10,4.478-10,10c0,5.522,4.477,10,10,10h0.25c5.523,0,10-4.478,10-10    C94.771,213.484,90.294,209.006,84.771,209.006z" data-original="#000000" class="active-path" data-old_color="#000000" fill="#04458F"/>
	</g>
</g><g>
	<g>
		<path d="M204.521,209.006h-89.25c-5.523,0-10,4.478-10,10c0,5.522,4.477,10,10,10h89.25c5.523,0,10-4.478,10-10    C214.521,213.484,210.044,209.006,204.521,209.006z" data-original="#000000" class="active-path" data-old_color="#000000" fill="#04458F"/>
	</g>
</g><g>
	<g>
		<path d="M84.771,258.013h-0.25c-5.523,0-10,4.478-10,10c0,5.522,4.477,10,10,10h0.25c5.523,0,10-4.478,10-10    C94.771,262.491,90.294,258.013,84.771,258.013z" data-original="#000000" class="active-path" data-old_color="#000000" fill="#04458F"/>
	</g>
</g><g>
	<g>
		<path d="M204.521,258.013h-89.25c-5.523,0-10,4.478-10,10c0,5.522,4.477,10,10,10h89.25c5.523,0,10-4.478,10-10    C214.521,262.491,210.044,258.013,204.521,258.013z" data-original="#000000" class="active-path" data-old_color="#000000" fill="#04458F"/>
	</g>
</g><g>
	<g>
		<path d="M277.771,61.987h-0.25c-5.523,0-10,4.478-10,10c0,5.522,4.477,10,10,10h0.25c5.523,0,10-4.478,10-10    C287.771,66.465,283.294,61.987,277.771,61.987z" data-original="#000000" class="active-path" data-old_color="#000000" fill="#04458F"/>
	</g>
</g><g>
	<g>
		<path d="M397.521,61.987h-89.25c-5.523,0-10,4.478-10,10c0,5.522,4.477,10,10,10h89.25c5.523,0,10-4.478,10-10    C407.521,66.465,403.044,61.987,397.521,61.987z" data-original="#000000" class="active-path" data-old_color="#000000" fill="#04458F"/>
	</g>
</g><g>
	<g>
		<path d="M277.771,110.994h-0.25c-5.523,0-10,4.478-10,10c0,5.522,4.477,10,10,10h0.25c5.523,0,10-4.478,10-10    C287.771,115.472,283.294,110.994,277.771,110.994z" data-original="#000000" class="active-path" data-old_color="#000000" fill="#04458F"/>
	</g>
</g><g>
	<g>
		<path d="M397.521,110.994h-89.25c-5.523,0-10,4.478-10,10c0,5.522,4.477,10,10,10h89.25c5.523,0,10-4.478,10-10    C407.521,115.472,403.044,110.994,397.521,110.994z" data-original="#000000" class="active-path" data-old_color="#000000" fill="#04458F"/>
	</g>
</g><g>
	<g>
		<path d="M277.771,160h-0.25c-5.523,0-10,4.478-10,10c0,5.522,4.477,10,10,10h0.25c5.523,0,10-4.478,10-10    C287.771,164.478,283.294,160,277.771,160z" data-original="#000000" class="active-path" data-old_color="#000000" fill="#04458F"/>
	</g>
</g><g>
	<g>
		<path d="M369.688,160h-61.417c-5.523,0-10,4.478-10,10c0,5.522,4.477,10,10,10h61.417c5.523,0,10-4.478,10-10    C379.688,164.478,375.211,160,369.688,160z" data-original="#000000" class="active-path" data-old_color="#000000" fill="#04458F"/>
	</g>
</g><g>
	<g>
		<path d="M277.771,209.006h-0.25c-5.523,0-10,4.478-10,10c0,5.522,4.477,10,10,10h0.25c5.523,0,10-4.478,10-10    C287.771,213.484,283.294,209.006,277.771,209.006z" data-original="#000000" class="active-path" data-old_color="#000000" fill="#04458F"/>
	</g>
</g><g>
	<g>
		<path d="M326.688,209.006h-18.417c-5.523,0-10,4.478-10,10c0,5.522,4.477,10,10,10h18.417c5.523,0,10-4.478,10-10    C336.688,213.484,332.211,209.006,326.688,209.006z" data-original="#000000" class="active-path" data-old_color="#000000" fill="#04458F"/>
	</g>
</g><g>
	<g>
		<path d="M277.771,258.013h-0.25c-5.523,0-10,4.478-10,10c0,5.522,4.477,10,10,10h0.25c5.523,0,10-4.478,10-10    C287.771,262.491,283.294,258.013,277.771,258.013z" data-original="#000000" class="active-path" data-old_color="#000000" fill="#04458F"/>
	</g>
</g><g>
	<g>
		<path d="M326.688,258.013h-18.417c-5.523,0-10,4.478-10,10c0,5.522,4.477,10,10,10h18.417c5.523,0,10-4.478,10-10    C336.688,262.491,332.211,258.013,326.688,258.013z" data-original="#000000" class="active-path" data-old_color="#000000" fill="#04458F"/>
	</g>
</g></g> </svg>
