<svg height="512" viewBox="0 0 64 64" width="512" xmlns="http://www.w3.org/2000/svg"><path d="m58 9h-6a1 1 0 0 0 -1 1v41a.989.989 0 0 0 .081.394l3 7a1 1 0 0 0 1.838 0l3-7a.989.989 0 0 0 .081-.394v-41a1 1 0 0 0 -1-1zm-1 2v4h-4v-4zm-4 38v-29h4v29zm0-31v-1h4v1zm2 37.461-1.912-4.461h3.824z"/><path d="m46 4h-7v-2h-2v2h-4v-2h-2v2h-4v-2h-2v2h-4v-2h-2v2h-4v-2h-2v2h-7a1 1 0 0 0 -1 1v56a1 1 0 0 0 1 1h40a1 1 0 0 0 1-1v-56a1 1 0 0 0 -1-1zm-39 2h6v2h2v-2h4v2h2v-2h4v2h2v-2h4v2h2v-2h4v2h2v-2h6v6h-38zm38 54h-38v-46h38z"/><path d="m11 18h30v2h-30z"/><path d="m11 24h30v2h-30z"/><path d="m11 30h30v2h-30z"/><path d="m11 36h30v2h-30z"/><path d="m11 42h30v2h-30z"/><path d="m11 48h30v2h-30z"/><path d="m11 54h30v2h-30z"/></svg>