<?xml version="1.0"?>
<svg xmlns="http://www.w3.org/2000/svg" xmlns:xlink="http://www.w3.org/1999/xlink" version="1.1" id="Capa_1" x="0px" y="0px" viewBox="0 0 512 512" style="enable-background:new 0 0 512 512;" xml:space="preserve" width="512px" height="512px" class=""><g><g>
	<g>
		<path d="M296,320c-5.52,0-10,4.48-10,10c0,5.52,4.48,10,10,10c5.52,0,10-4.48,10-10C306,324.48,301.52,320,296,320z" data-original="#000000" class="active-path" data-old_color="#000000" fill="#FFFFFF"/>
	</g>
</g><g>
	<g>
		<path d="M156,220h-40c-5.523,0-10,4.477-10,10s4.477,10,10,10h40c5.523,0,10-4.477,10-10S161.523,220,156,220z" data-original="#000000" class="active-path" data-old_color="#000000" fill="#FFFFFF"/>
	</g>
</g><g>
	<g>
		<path d="M396,220h-40c-5.523,0-10,4.477-10,10s4.477,10,10,10h40c5.523,0,10-4.477,10-10S401.523,220,396,220z" data-original="#000000" class="active-path" data-old_color="#000000" fill="#FFFFFF"/>
	</g>
</g><g>
	<g>
		<path d="M362.061,123.938c-3.905-3.905-10.237-3.905-14.143,0l-28.28,28.28c-3.905,3.905-3.905,10.237,0,14.143    c3.905,3.905,10.238,3.906,14.143,0l28.28-28.28C365.966,134.176,365.966,127.844,362.061,123.938z" data-original="#000000" class="active-path" data-old_color="#000000" fill="#FFFFFF"/>
	</g>
</g><g>
	<g>
		<path d="M192.362,152.218l-28.28-28.28c-3.905-3.905-10.237-3.905-14.143,0c-3.905,3.905-3.905,10.237,0,14.143l28.28,28.28    c3.905,3.905,10.237,3.905,14.143,0C196.267,162.456,196.267,156.124,192.362,152.218z" data-original="#000000" class="active-path" data-old_color="#000000" fill="#FFFFFF"/>
	</g>
</g><g>
	<g>
		<path d="M256,80c-5.523,0-10,4.477-10,10v40c0,5.523,4.477,10,10,10s10-4.477,10-10V90C266,84.477,261.523,80,256,80z" data-original="#000000" class="active-path" data-old_color="#000000" fill="#FFFFFF"/>
	</g>
</g><g>
	<g>
		<path d="M476,0H36c-5.523,0-10,4.477-10,10v492c0,5.523,4.477,10,10,10h440c5.523,0,10-4.477,10-10V10C486,4.477,481.523,0,476,0z     M466,492H46V20h420V492z" data-original="#000000" class="active-path" data-old_color="#000000" fill="#FFFFFF"/>
	</g>
</g><g>
	<g>
		<path d="M436,40H76c-5.523,0-10,4.477-10,10c0,19.89,0,320.003,0,340c0,5.523,4.477,10,10,10h360c5.523,0,10-4.477,10-10    c0-20.024,0-320.114,0-340C446,44.477,441.523,40,436,40z M426,380H86v-36.957c1.88,0.765,3.591,1.961,4.972,3.539    c6.313,7.219,15.435,11.36,25.028,11.36s18.715-4.141,25.028-11.36c2.552-2.918,6.093-4.525,9.972-4.525    c3.879,0,7.42,1.607,9.972,4.525c6.313,7.219,15.435,11.36,25.028,11.36s18.715-4.141,25.028-11.36    c2.552-2.918,6.093-4.525,9.972-4.525c3.879,0,7.42,1.607,9.97,4.522c7.747,8.865,19.287,12.888,30.839,10.848    c5.438-0.96,9.069-6.148,8.108-11.587c-0.961-5.439-6.146-9.071-11.587-8.108c-4.63,0.817-9.228-0.795-12.303-4.315    c-6.313-7.219-15.435-11.36-25.028-11.36c-9.593,0-18.715,4.141-25.028,11.36c-2.552,2.918-6.093,4.525-9.972,4.525    c-3.879,0-7.42-1.607-9.972-4.525c-6.313-7.219-15.435-11.36-25.028-11.36c-9.593,0-18.715,4.141-25.028,11.36    c-2.552,2.918-6.093,4.525-9.972,4.525c-3.879,0-7.42-1.607-9.976-4.53c-5.252-5.998-12.386-9.787-20.024-10.952v-39.417    c1.88,0.765,3.591,1.961,4.972,3.539c6.313,7.219,15.435,11.36,25.028,11.36c9.593,0,18.715-4.141,25.028-11.36    c2.552-2.918,6.093-4.525,9.972-4.525c3.879,0,7.42,1.607,9.972,4.525c6.313,7.219,15.435,11.36,25.028,11.36    c9.593,0,18.715-4.141,25.028-11.36c1.664-1.903,3.712-3.232,6.091-3.952c4.997-1.514,10.433,0.035,13.853,3.952    c6.313,7.219,15.435,11.36,25.028,11.36c9.593,0,18.715-4.141,25.032-11.365c3.41-3.906,8.835-5.456,13.829-3.952    c0.013,0.004,0.026,0.008,0.039,0.011c2.368,0.719,4.411,2.047,6.072,3.945c6.313,7.219,15.435,11.36,25.028,11.36    s18.715-4.141,25.028-11.36c2.552-2.918,6.093-4.525,9.972-4.525c3.879,0,7.42,1.607,9.972,4.525    c6.313,7.219,15.435,11.36,25.028,11.36s18.715-4.141,25.024-11.355c1.383-1.58,3.095-2.777,4.976-3.542v39.414    c-7.639,1.165-14.773,4.956-20.028,10.958c-2.552,2.918-6.093,4.525-9.972,4.525c-3.879,0-7.42-1.607-9.972-4.525    c-6.313-7.219-15.435-11.36-25.028-11.36s-18.715,4.141-25.027,11.358c-1.723,1.97-3.958,3.374-6.462,4.059    c-5.327,1.458-8.464,6.958-7.006,12.285c1.457,5.327,6.957,8.463,12.285,7.006c6.305-1.725,11.92-5.246,16.239-10.183    c2.552-2.918,6.093-4.525,9.972-4.525c3.879,0,7.42,1.607,9.972,4.525c6.313,7.219,15.435,11.36,25.028,11.36    s18.715-4.141,25.024-11.355c1.383-1.58,3.095-2.777,4.976-3.543V380z M206,230c0-27.57,22.43-50,50-50s50,22.43,50,50    c0,11.965-4.148,23.236-11.77,32.232c-10.55-1.017-21.143,3.037-28.258,11.185c-2.552,2.918-6.093,4.525-9.972,4.525    s-7.42-1.607-9.968-4.52c-7.12-8.153-17.716-12.208-28.262-11.191C210.148,253.236,206,241.965,206,230z M426,262.46    c-7.639,1.166-14.773,4.956-20.028,10.957c-2.552,2.918-6.093,4.525-9.972,4.525c-3.879,0-7.42-1.607-9.972-4.525    c-6.313-7.219-15.435-11.36-25.028-11.36s-18.715,4.141-25.028,11.36c-2.552,2.918-6.093,4.525-9.972,4.525    c-3.879,0-7.42-1.607-9.972-4.525c-0.913-1.044-1.895-2.015-2.92-2.931C321.478,258.75,326,244.757,326,230    c0-38.598-31.402-70-70-70c-38.598,0-70,31.402-70,70c0,14.757,4.523,28.751,12.892,40.487c-1.025,0.915-2.006,1.886-2.919,2.931    c-2.552,2.918-6.093,4.525-9.972,4.525c-3.879,0-7.42-1.607-9.972-4.525c-6.313-7.219-15.435-11.36-25.028-11.36    c-9.593,0-18.715,4.141-25.028,11.36c-2.552,2.918-6.093,4.525-9.972,4.525c-3.879,0-7.42-1.607-9.976-4.53    c-5.252-5.998-12.386-9.788-20.024-10.953V60H426V262.46z" data-original="#000000" class="active-path" data-old_color="#000000" fill="#FFFFFF"/>
	</g>
</g></g> </svg>
