<?xml version="1.0"?>
<svg xmlns="http://www.w3.org/2000/svg" height="512px" viewBox="1 -12 511.99903 511" width="512px"><g><path d="m495.324219 25.484375c-10.363281-16.113281-24.890625-24.984375-40.902344-24.984375-.015625 0-.027344 0-.039063 0-.082031 0-.167968.007812-.25.007812h-298.574218c-27.550782 0-55.445313 24.820313-55.445313 72.25v309.015626h-90.128906c-5.523437.011718-9.9921875 4.5-9.984375 10.023437.113281 66.113281 31.484375 95.695313 62.542969 95.695313h.042969c.078124 0 .15625-.007813.234374-.007813h257.617188c.839844.011719 1.667969.015625 2.5.015625 33.382812 0 58.835938-8.421875 75.671875-25.046875 15.089844-14.898437 22.742187-35.699219 22.742187-61.824219v-128.375c0-5.527344-4.480468-10.007812-10.007812-10.007812s-10.007812 4.480468-10.007812 10.007812v128.375c0 20.574219-5.648438 36.582032-16.789063 47.582032-13.316406 13.148437-34.847656 19.605468-63.921875 19.257812-.039062 0-.085938 0-.125 0h-217.253906c10.109375-12.03125 16.886718-29.324219 16.886718-51.5v-24.417969c0-.015625 0-.035156 0-.050781v-318.742188c0-34.292968 17.820313-52.234374 35.425782-52.234374h261.339844c-9.316407 12.03125-15.5625 29.320312-15.5625 51.5v24.4375.066406 95.84375c0 5.527344 4.480468 10.007812 10.007812 10.007812s10.007812-4.480468 10.007812-10.007812v-86.152344h80.671876c5.519531-.015625 9.984374-4.503906 9.976562-10.023438-.050781-29.378906-5.816406-53.828124-16.675781-70.710937zm-432.878907 441.984375c-.019531 0-.039062 0-.054687 0-19.660156-.101562-39.472656-20.726562-42.085937-65.910156h79.808593v14.410156c0 33.285156-19.171875 51.320312-37.300781 51.5zm358.90625-381.015625v-14.429687c0-33.269532 16.855469-51.304688 32.804688-51.5h.214844c.039062 0 .078125-.003907.117187-.007813 16.816407.0625 34.832031 20.933594 37.226563 65.9375zm0 0" data-original="#000000" class="active-path" data-old_color="#000000" fill="#5F7D95"/><path d="m271.722656 55.417969c-1.816406-3.285157-5.316406-5.265625-9.066406-5.167969-16.753906.503906-32.425781 7.414062-44.128906 19.457031-11.726563 12.070313-18.183594 27.988281-18.183594 44.824219 0 35.476562 28.839844 64.339844 64.289062 64.339844 21.390626 0 41.316407-10.59375 53.304688-28.339844 2.121094-3.144531 2.285156-7.214844.425781-10.519531-1.863281-3.300781-5.433593-5.269531-9.21875-5.078125-.398437.019531-.777343.011718-1.171875.015625-24.414062 0-44.273437-19.871094-44.273437-44.296875 0-8.875 2.617187-17.457032 7.5625-24.8125 2.09375-3.113282 2.273437-7.136719.460937-10.421875zm16.695313 96.507812c-7.007813 4.464844-15.226563 6.925781-23.785157 6.925781-24.414062 0-44.273437-19.882812-44.273437-44.320312 0-17.824219 10.300781-33.097656 25.394531-40.144531-1.371094 5.273437-2.070312 10.730469-2.070312 16.265625 0 28.644531 18.816406 52.976562 44.734375 61.273437zm0 0" data-original="#000000" class="active-path" data-old_color="#000000" fill="#5F7D95"/><path d="m411.34375 222.121094c-5.527344 0-10.007812 4.480468-10.007812 10.007812v.195313c0 5.527343 4.480468 10.007812 10.007812 10.007812s10.007812-4.480469 10.007812-10.007812v-.195313c0-5.527344-4.480468-10.007812-10.007812-10.007812zm0 0" data-original="#000000" class="active-path" data-old_color="#000000" fill="#5F7D95"/><path d="m354.996094 210.070312h-188.128906c-5.523438 0-10.007813 4.480469-10.007813 10.007813 0 5.523437 4.484375 10.007813 10.007813 10.007813h188.128906c5.527344 0 10.007812-4.484376 10.007812-10.007813 0-5.527344-4.480468-10.007813-10.007812-10.007813zm0 0" data-original="#000000" class="active-path" data-old_color="#000000" fill="#5F7D95"/><path d="m354.996094 270.101562h-188.128906c-5.523438 0-10.007813 4.480469-10.007813 10.007813s4.484375 10.007813 10.007813 10.007813h188.128906c5.527344 0 10.007812-4.480469 10.007812-10.007813s-4.480468-10.007813-10.007812-10.007813zm0 0" data-original="#000000" class="active-path" data-old_color="#000000" fill="#5F7D95"/><path d="m354.996094 330.132812h-188.128906c-5.523438 0-10.007813 4.480469-10.007813 10.007813s4.484375 10.007813 10.007813 10.007813h188.128906c5.527344 0 10.007812-4.480469 10.007812-10.007813s-4.480468-10.007813-10.007812-10.007813zm0 0" data-original="#000000" class="active-path" data-old_color="#000000" fill="#5F7D95"/><path d="m354.996094 390.136719h-188.128906c-5.523438 0-10.007813 4.480469-10.007813 10.007812 0 5.527344 4.484375 10.007813 10.007813 10.007813h188.128906c5.527344 0 10.007812-4.480469 10.007812-10.007813 0-5.527343-4.480468-10.007812-10.007812-10.007812zm0 0" data-original="#000000" class="active-path" data-old_color="#000000" fill="#5F7D95"/></g> </svg>
