<svg height="512" viewBox="0 0 128 128" width="512" xmlns="http://www.w3.org/2000/svg"><g><path d="m86.5 47.083h-45a1.75 1.75 0 0 0 0 3.5h45a1.75 1.75 0 0 0 0-3.5z"/><path d="m86.5 57.183h-45a1.75 1.75 0 0 0 0 3.5h45a1.75 1.75 0 0 0 0-3.5z"/><path d="m86.5 67.283h-45a1.75 1.75 0 0 0 0 3.5h45a1.75 1.75 0 0 0 0-3.5z"/><path d="m86.5 77.383h-45a1.75 1.75 0 0 0 0 3.5h45a1.75 1.75 0 0 0 0-3.5z"/><path d="m86.5 87.483h-45a1.75 1.75 0 0 0 0 3.5h45a1.75 1.75 0 0 0 0-3.5z"/><path d="m86.5 97.583h-45a1.75 1.75 0 0 0 0 3.5h45a1.75 1.75 0 0 0 0-3.5z"/><path d="m86.5 26.917h-45a1.751 1.751 0 0 0 -1.75 1.75v9a1.751 1.751 0 0 0 1.75 1.75h45a1.75 1.75 0 0 0 1.75-1.75v-9a1.75 1.75 0 0 0 -1.75-1.75zm-1.75 9h-41.5v-5.5h41.5z"/><path d="m117.724 109.75a5.758 5.758 0 0 0 -5.476 4h-3.774v-4.25a1.751 1.751 0 0 0 -1.75-1.75h-3.224v-87.5h3.224a1.751 1.751 0 0 0 1.75-1.75v-4.25h3.774a5.75 5.75 0 1 0 0-3.5h-3.774v-4.25a1.751 1.751 0 0 0 -1.75-1.75h-85a1.75 1.75 0 0 0 -1.75 1.75v4.25h-3.774a5.75 5.75 0 1 0 0 3.5h3.775v4.25a1.75 1.75 0 0 0 1.75 1.75h2.775v87.5h-2.776a1.75 1.75 0 0 0 -1.75 1.75v4.25h-3.774a5.75 5.75 0 1 0 0 3.5h3.775v4.25a1.75 1.75 0 0 0 1.75 1.75h85a1.751 1.751 0 0 0 1.75-1.75v-4.25h3.774a5.749 5.749 0 1 0 5.476-7.5zm0-99.5a2.25 2.25 0 1 1 -2.25 2.25 2.253 2.253 0 0 1 2.25-2.25zm-107 4.5a2.25 2.25 0 1 1 2.25-2.25 2.252 2.252 0 0 1 -2.25 2.25zm0 103a2.25 2.25 0 1 1 2.25-2.25 2.252 2.252 0 0 1 -2.25 2.25zm12.75-109.5h81.5v4.211.039s0 .026 0 .039v4.211h-81.5zm4.526 12h72v87.5h-72zm-4.526 99.5v-8.5h81.5v4.211.039s0 .026 0 .039v4.211zm94.25-2a2.25 2.25 0 1 1 2.25-2.25 2.252 2.252 0 0 1 -2.25 2.25z"/></g></svg>