<?xml version="1.0"?>
<svg xmlns="http://www.w3.org/2000/svg" width="512" height="512" viewBox="0 0 128 128"><g><path d="M114.41,6.5a1.767,1.767,0,0,0-1.77-1.75H65.73c-16.021,0-32.312,0-41.92.01-.031,0-.142,0-.173,0A10.595,10.595,0,0,0,13.59,15.34v97.31a1.652,1.652,0,0,0,.02.2,10.6,10.6,0,0,0,10.58,10.4h88.46a1.75,1.75,0,0,0,1.75-1.75v-8.744c0-.034.01-.067.01-.1V6.5ZM19.167,10.327A7.089,7.089,0,0,1,23.812,8.26c9.609-.01,25.9-.01,41.918-.01h45.18v93.811H24.19a10.5,10.5,0,0,0-7.1,2.751V15.34A7.048,7.048,0,0,1,19.167,10.327ZM24.19,119.75a7.095,7.095,0,0,1,0-14.189H110.9V110.9H24.339a1.75,1.75,0,0,0,0,3.5H110.9v5.346Z"/><path d="M64,24.5A21.655,21.655,0,1,0,85.649,46.149,21.679,21.679,0,0,0,64,24.5ZM77.95,34.555h-7.1L67.212,28.3A18.15,18.15,0,0,1,77.95,34.555Zm4.2,11.594A18.042,18.042,0,0,1,81.1,52.183L77.59,46.15,81.1,40.117A18.035,18.035,0,0,1,82.149,46.149ZM64,62.572l-2.807-4.827H66.8Zm-4.841-8.327L54.448,46.15l4.706-8.095h9.682l4.706,8.095-4.706,8.095Zm-13.314-8.1a18.035,18.035,0,0,1,1.052-6.032L50.4,46.15l-3.507,6.033A18.042,18.042,0,0,1,45.84,46.149Zm3.9-8.094h5.363l-2.682,4.613Zm2.681,11.577,2.682,4.613H49.742ZM64,29.728,66.8,34.555H61.188Zm8.889,8.327h5.364l-2.682,4.613Zm2.682,11.577,2.682,4.613H72.884ZM60.777,28.3,57.14,34.555h-7.1A18.15,18.15,0,0,1,60.777,28.3ZM50.04,57.745h7.1L60.777,64A18.151,18.151,0,0,1,50.04,57.745ZM67.212,64l3.637-6.257h7.1A18.15,18.15,0,0,1,67.212,64Z"/><path d="M81.289,75.875H46.7a1.75,1.75,0,0,0,0,3.5H81.289a1.75,1.75,0,0,0,0-3.5Z"/><path d="M81.289,83.75H46.7a1.75,1.75,0,1,0,0,3.5H81.289a1.75,1.75,0,0,0,0-3.5Z"/><path d="M24.339,96.561H103.65a1.751,1.751,0,0,0,1.75-1.75V15.5a1.75,1.75,0,0,0-1.75-1.75H24.339a1.75,1.75,0,0,0-1.75,1.75V94.811A1.751,1.751,0,0,0,24.339,96.561Zm1.75-79.311H101.9V93.061H26.089Z"/></g></svg>
