<?xml version="1.0"?>
<svg xmlns="http://www.w3.org/2000/svg" viewBox="0 0 512 512" width="512px" height="512px" class=""><g><path d="m159.4375 318.871094c-87.914062 0-159.4375-71.519532-159.4375-159.433594s71.523438-159.4375 159.4375-159.4375c75.175781 0 139.609375 52.09375 155.664062 124.804688 12.449219 2.390624 27.886719 1.84375 39.9375-9.839844 3.09375-3 7.761719-3.683594 11.582032-1.691406 3.820312 1.992187 5.9375 6.207031 5.25 10.460937-6.671875 41.410156-37.957032 65.714844-58.542969 77.476563-8.8125 32.476562-28.054687 61.785156-54.523437 82.910156-28.488282 22.734375-62.847657 34.75-99.367188 34.75zm0-298.871094c-76.886719 0-139.4375 62.550781-139.4375 139.4375s62.550781 139.4375 139.4375 139.4375c64.691406 0 120.433594-43.863281 135.554688-106.671875.671874-2.777344 2.5-5.140625 5.023437-6.484375 12.949219-6.894531 33.074219-20.4375 44.46875-42.230469-12.167969 3.480469-25.964844 3.273438-40.605469-.792969-3.707031-1.027343-6.496094-4.09375-7.167968-7.882812-11.855469-66.527344-69.582032-114.8125-137.273438-114.8125zm0 0" data-original="#000000" class="active-path" fill="#000000"/><path d="m383.5 512c-29.015625 0-57.457031-9.945312-80.089844-28.011719-21.105468-16.84375-36.511718-40.144531-43.714844-65.992187-16.667968-9.679688-41.351562-29.300782-46.699218-62.480469-.683594-4.253906 1.433594-8.464844 5.253906-10.457031 3.820312-1.996094 8.484375-1.3125 11.582031 1.6875 8.511719 8.253906 19.40625 8.996094 28.515625 7.496094 13.433594-57.894532 65.03125-99.242188 125.152344-99.242188 70.855469 0 128.5 57.644531 128.5 128.5s-57.644531 128.5-128.5 128.5zm-142.570312-138.035156c9.015624 14.445312 22.878906 23.65625 32.066406 28.550781 2.527344 1.34375 4.355468 3.703125 5.023437 6.484375 11.769531 48.867188 55.144531 83 105.480469 83 59.828125 0 108.5-48.671875 108.5-108.5s-48.671875-108.5-108.5-108.5c-52.671875 0-97.59375 37.570312-106.8125 89.335938-.675781 3.789062-3.464844 6.855468-7.171875 7.882812-10.136719 2.8125-19.796875 3.371094-28.585937 1.746094zm0 0" data-original="#000000" class="active-path" fill="#000000"/><path d="m341 394c-2.628906 0-5.210938-1.070312-7.070312-2.929688-1.859376-1.859374-2.929688-4.441406-2.929688-7.070312s1.070312-5.210938 2.929688-7.070312c1.859374-1.859376 4.441406-2.929688 7.070312-2.929688s5.210938 1.070312 7.070312 2.929688c1.859376 1.859374 2.929688 4.441406 2.929688 7.070312s-1.070312 5.210938-2.929688 7.070312c-1.859374 1.859376-4.441406 2.929688-7.070312 2.929688zm0 0" data-original="#000000" class="active-path" fill="#000000"/><path d="m384 394c-2.628906 0-5.210938-1.070312-7.070312-2.929688-1.859376-1.859374-2.929688-4.441406-2.929688-7.070312s1.070312-5.210938 2.929688-7.070312c1.859374-1.859376 4.441406-2.929688 7.070312-2.929688s5.210938 1.070312 7.070312 2.929688c1.859376 1.859374 2.929688 4.441406 2.929688 7.070312s-1.070312 5.210938-2.929688 7.070312c-1.859374 1.859376-4.441406 2.929688-7.070312 2.929688zm0 0" data-original="#000000" class="active-path" fill="#000000"/><path d="m427 394c-2.640625 0-5.210938-1.070312-7.070312-2.929688-1.859376-1.859374-2.929688-4.441406-2.929688-7.070312s1.070312-5.210938 2.929688-7.070312c1.859374-1.859376 4.429687-2.929688 7.070312-2.929688 2.628906 0 5.210938 1.070312 7.070312 2.929688 1.859376 1.859374 2.929688 4.441406 2.929688 7.070312s-1.070312 5.210938-2.929688 7.070312c-1.859374 1.859376-4.441406 2.929688-7.070312 2.929688zm0 0" data-original="#000000" class="active-path" fill="#000000"/><path d="m221.167969 145h-134.167969c-5.523438 0-10-4.476562-10-10s4.476562-10 10-10h134.167969c5.519531 0 10 4.476562 10 10s-4.480469 10-10 10zm0 0" data-original="#000000" class="active-path" fill="#000000"/><path d="m176 193h-89c-5.523438 0-10-4.476562-10-10s4.476562-10 10-10h89c5.523438 0 10 4.476562 10 10s-4.476562 10-10 10zm0 0" data-original="#000000" class="active-path" fill="#000000"/><path d="m221.171875 193c-2.632813 0-5.210937-1.070312-7.082031-2.929688-1.859375-1.859374-2.917969-4.441406-2.917969-7.070312s1.058594-5.210938 2.917969-7.070312c1.871094-1.859376 4.441406-2.929688 7.082031-2.929688 2.628906 0 5.207031 1.070312 7.066406 2.929688 1.859375 1.859374 2.933594 4.441406 2.933594 7.070312s-1.070313 5.210938-2.933594 7.070312c-1.867187 1.859376-4.4375 2.929688-7.066406 2.929688zm0 0" data-original="#000000" class="active-path" fill="#000000"/></g> </svg>
